<?xml version="1.0" encoding="UTF-8"?>
<svg viewBox="0 0 274 131" version="1.1" xmlns="http://www.w3.org/2000/svg" xmlns:xlink="http://www.w3.org/1999/xlink">
    <g id="Page-4" stroke="none" stroke-width="1" fill="none" fill-rule="evenodd">
        <g id="f47a0-75wi7" transform="translate(-167.000000, -256.000000)">
            <g id="bubble-seller-green" transform="translate(304.000000, 320.500000) scale(-1, 1) translate(-304.000000, -320.500000) translate(168.000000, 257.000000)">
                <path d="M259.146871,17.6846416 C255.499361,6.67508532 248.812261,6.24163823 242.646232,5.72150171 L8.33716475,0 C4.42911877,0.260068259 0.694763729,3.46757679 0,7.97542662 L1.38952746,79.0607509 C2.25798212,84.868942 4.34227331,88.0764505 10.1609195,88.1631399 L170.043423,89.2901024 C172.996169,89.3767918 175.862069,90.3303754 178.293742,92.1508532 L224.408685,127 L218.93742,93.1044369 C218.590038,91.283959 220.066411,89.5501706 221.890166,89.5501706 L249.59387,89.7235495 C260.88378,90.5904437 270.176245,87.6430034 272,77.7604096 C272,77.7604096 262.707535,28.7808874 259.146871,17.6846416 Z" id="Fill-462" fill="#41C9B0" fill-rule="nonzero"></path>
                <path d="M243.958859,6.71334843 L9.26094904,1 C5.43482527,1.25969766 1.69565887,4.46263541 1,8.96406144 L2.39131773,79.9480873 C2.65218981,81.7659709 4.39133697,35.3666564 5.78265471,15.1102393 C6.2174415,9.39689087 9.26094904,7.57900728 15.0001347,7.49244139 C60.7397052,7.40587551 247.176281,6.97304608 243.958859,6.71334843 Z" id="Fill-463" fill="#2B9E88" fill-rule="nonzero"></path>
                <path d="M259.080463,17.6846416 C255.433888,6.67508532 248.748501,6.24163823 242.584053,5.72150171 L8.2482051,0 C4.514807,0.260068259 0.694585692,3.46757679 0,7.97542662 L1.38917138,79.0607509 C2.2574035,84.868942 4.34116058,88.0764505 10.1583157,88.1631399 L169.999848,89.2901024 C172.951837,89.3767918 175.817003,90.3303754 178.248053,92.1508532 L224.351179,127 L218.968139,93.7112628 C218.620847,91.5440273 220.270488,89.5501706 222.441068,89.5501706 L249.52991,89.7235495 C261.103484,89.7235495 270.714774,87.426149 271.930299,77.7604096 C272.943116,68.9939795 262.640215,28.7808874 259.080463,17.6846416 Z" id="Stroke-464" stroke="#203568" stroke-width="1.98099"></path>
            </g>
        </g>
    </g>
</svg>