<svg width="117" height="81" viewBox="0 0 117 81" fill="none" xmlns="http://www.w3.org/2000/svg">
<path fill-rule="evenodd" clip-rule="evenodd" d="M5.97146 1.59924L97.2498 3.31179C100.821 3.5908 102.325 5.15584 104.053 9.0303C105.149 11.4897 112.491 39.4097 114.863 48.9019C116.445 55.2301 113.754 58.3942 106.791 58.3942H93.8628L97.2498 78.0498L67.7455 58.3942L8.37228 56.4412C3.3412 56.2397 2.22552 53.9402 1.65283 50.5362L2.04678 5.79106C1.86249 3.39423 3.26265 1.74428 5.97146 1.59924Z" fill="#38CAB0"/>
<path fill-rule="evenodd" clip-rule="evenodd" d="M103.244 4.31191L9.09881 5.69423C6.43845 5.99302 5.10827 7.26589 5.10827 9.51283C5.10827 11.7598 3.95645 26.6697 1.65283 54.2426V7.44773L2.24107 4.31191L4.03709 2.22159L6.74218 2.1781L103.244 4.31191Z" fill="#229F88"/>
<path fill-rule="evenodd" clip-rule="evenodd" d="M5.97146 1.59924L97.2498 3.31179C100.821 3.59081 102.325 5.15584 104.053 9.0303C105.149 11.4897 112.491 39.4097 114.863 48.902C116.445 55.2301 113.754 58.3942 106.791 58.3942H93.8628L97.2498 78.4155L67.7455 58.3942L8.37228 56.4412C3.3412 56.2397 2.22552 53.9402 1.65283 50.5362L2.04678 5.79106C1.86249 3.39423 3.26265 1.74428 5.97146 1.59924Z" stroke="#203568" stroke-width="2" stroke-linecap="round"/>
</svg>
