<?xml version="1.0" encoding="UTF-8"?>
<svg width="125px" height="90px" viewBox="0 0 125 90" version="1.1" xmlns="http://www.w3.org/2000/svg" xmlns:xlink="http://www.w3.org/1999/xlink">
    <!-- Generator: Sketch 53.2 (72643) - https://sketchapp.com -->
    <title>customer-emotion</title>
    <desc>Created with Sketch.</desc>
    <g id="Page-18" stroke="none" stroke-width="1" fill="none" fill-rule="evenodd">
        <g id="Artboard-3" transform="translate(-61.000000, -178.000000)" fill="#FFFFFF">
            <g id="customer-emotion" transform="translate(61.000000, 175.446848)">
                <path d="M41.8037588,14.9974001 C41.8037588,13.1796031 42.3873586,11.3379154 43.5545756,9.47228162 C44.7217926,7.60664788 46.4247558,6.06154362 48.6635163,4.8369225 C50.9022768,3.61230138 53.5141249,3 56.4991388,3 C59.2736711,3 61.7228766,3.51184568 63.8468288,4.5355524 C65.9707811,5.55925912 67.6115575,6.95128803 68.7692071,8.7116809 C69.9268568,10.4720738 70.5056729,12.3855156 70.5056729,14.4520637 C70.5056729,16.0785136 70.1756042,17.5040278 69.5154569,18.7286489 C68.8553095,19.95327 68.0707984,21.0104466 67.1618999,21.9002104 C66.2530014,22.7899742 64.6217923,24.2872424 62.2682236,26.39206 C61.6176436,26.9852358 61.0962307,27.5066487 60.7039693,27.9563143 C60.3117078,28.4059798 60.0199079,28.8173698 59.8285609,29.1904966 C59.6372138,29.5636233 59.4889221,29.9367445 59.3836812,30.3098712 C59.2784403,30.682998 59.1205814,31.3383518 58.9100996,32.2759523 C58.5465402,34.2659617 57.4080424,35.2609514 55.4945719,35.2609514 C54.4995672,35.2609514 53.6624364,34.9356663 52.9831544,34.2850863 C52.3038723,33.6345064 51.9642364,32.6682182 51.9642364,31.386193 C51.9642364,29.7788778 52.2129839,28.3868489 52.7104862,27.2100645 C53.2079885,26.0332802 53.8681259,25.0000216 54.6909183,24.1102578 C55.5137106,23.220494 56.6235068,22.1633174 58.0203403,20.9386963 C59.2449614,19.8671528 60.1299282,19.0587236 60.6752673,18.5133846 C61.2206064,17.9680455 61.6798325,17.3605277 62.0529592,16.690813 C62.426086,16.0210983 62.6126465,15.2939904 62.6126465,14.5094675 C62.6126465,12.9786911 62.0433976,11.6871179 60.9048827,10.6347091 C59.7663677,9.58230036 58.2978011,9.05610387 56.4991388,9.05610387 C54.3943213,9.05610387 52.8444334,9.58708397 51.8494288,10.6490601 C50.8544241,11.7110362 50.0125097,13.2752749 49.3236603,15.341823 C48.6730804,17.5040447 47.4389104,18.5851393 45.6211134,18.5851393 C44.5495699,18.5851393 43.6454687,18.2072346 42.9087825,17.4514137 C42.1720964,16.6955929 41.8037588,15.8775965 41.8037588,14.9974001 Z M55.8102929,46.4546979 C54.6430759,46.4546979 53.6241681,46.0767931 52.7535391,45.3209723 C51.88291,44.5651514 51.447602,43.5079748 51.447602,42.1494108 C51.447602,40.9439244 51.8685592,39.9298002 52.7104862,39.1070079 C53.5524132,38.2842156 54.5856718,37.8728256 55.8102929,37.8728256 C57.0157793,37.8728256 58.0299035,38.2842156 58.8526958,39.1070079 C59.6754881,39.9298002 60.0868781,40.9439244 60.0868781,42.1494108 C60.0868781,43.4888401 59.6563537,44.5412331 58.795292,45.3066213 C57.9342302,46.0720095 56.9392405,46.4546979 55.8102929,46.4546979 Z" id="?" fill-rule="nonzero" transform="translate(56.154716, 24.727349) rotate(-15.000000) translate(-56.154716, -24.727349) "></path>
                <path d="M85.3308902,49.640198 C85.3308902,48.9876883 85.5403771,48.3266027 85.959357,47.6569217 C86.378337,46.9872406 86.9896264,46.4326156 87.7932437,45.9930301 C88.596861,45.5534445 89.5344005,45.3336551 90.6058902,45.3336551 C91.6018262,45.3336551 92.4809841,45.5173853 93.2433902,45.8848513 C94.0057964,46.2523174 94.5947635,46.751995 95.0103092,47.3838992 C95.4258549,48.0158034 95.6336246,48.7026455 95.6336246,49.4444461 C95.6336246,50.0282706 95.5151443,50.539968 95.2781803,50.9795535 C95.0412162,51.419139 94.7596109,51.7986193 94.4333561,52.1180056 C94.1071012,52.437392 93.5215683,52.9748459 92.6767398,53.7303836 C92.44321,53.9433078 92.2560456,54.1304723 92.1152408,54.2918826 C91.9744361,54.4532929 91.8696927,54.600964 91.8010074,54.7349002 C91.7323222,54.8688364 91.6790919,55.0027706 91.641315,55.1367068 C91.6035382,55.270643 91.5468737,55.5058864 91.4713199,55.8424441 C91.340818,56.5567706 90.9321469,56.9139285 90.2452945,56.9139285 C89.8881313,56.9139285 89.5876379,56.7971653 89.3438053,56.5636355 C89.0999727,56.3301057 88.9780582,55.9832505 88.9780582,55.5230594 C88.9780582,54.9461033 89.0673477,54.4464257 89.2459293,54.0240115 C89.4245109,53.6015973 89.6614714,53.2307026 89.956818,52.9113162 C90.2521645,52.5919298 90.6505329,52.2124496 91.1519352,51.772864 C91.5915207,51.3882267 91.9091852,51.0980359 92.1049381,50.902283 C92.300691,50.7065301 92.4655331,50.4884577 92.5994693,50.2480594 C92.7334055,50.007661 92.8003727,49.746661 92.8003727,49.4650515 C92.8003727,48.9155696 92.5960371,48.4519512 92.18736,48.0741824 C91.7786828,47.6964136 91.2515315,47.507532 90.6058902,47.507532 C89.8503526,47.507532 89.2940105,47.6981307 88.9368473,48.0793338 C88.579684,48.4605368 88.2774735,49.0220303 88.0302066,49.7638308 C87.7966768,50.539974 87.3536637,50.9280398 86.7011539,50.9280398 C86.3165166,50.9280398 85.9919837,50.7923885 85.7275455,50.5210818 C85.4631073,50.2497751 85.3308902,49.9561501 85.3308902,49.640198 Z M90.3586246,60.9319949 C89.9396446,60.9319949 89.5739012,60.7963436 89.2613834,60.5250369 C88.9488656,60.2537302 88.792609,59.8742499 88.792609,59.3865847 C88.792609,58.9538677 88.9437142,58.5898414 89.2459293,58.2944949 C89.5481443,57.9991484 89.9190391,57.8514773 90.3586246,57.8514773 C90.7913416,57.8514773 91.1553679,57.9991484 91.4507144,58.2944949 C91.746061,58.5898414 91.893732,58.9538677 91.893732,59.3865847 C91.893732,59.8673814 91.7391926,60.2451446 91.430109,60.5198855 C91.1210254,60.7946265 90.7638675,60.9319949 90.3586246,60.9319949 Z" id="?" fill-rule="nonzero" transform="translate(90.482257, 53.132825) rotate(-345.000000) translate(-90.482257, -53.132825) "></path>
                <path d="M70,79.6043331 C70,80.7043331 69.1,81.6043331 68,81.6043331 C66.9,81.6043331 66,80.7043331 66,79.6043331 C66,78.5043331 66.9,77.6043331 68,77.6043331 C69.1,77.6043331 70,78.5043331 70,79.6043331 Z" id="Fill-393"></path>
                <path d="M26,32.6043331 C26,33.7043331 25.1,34.6043331 24,34.6043331 C22.9,34.6043331 22,33.7043331 22,32.6043331 C22,31.5043331 22.9,30.6043331 24,30.6043331 C25.1,30.6043331 26,31.5043331 26,32.6043331 Z" id="Fill-394"></path>
                <path d="M100,23.6043331 C100,24.7043331 99.1,25.6043331 98,25.6043331 C96.9,25.6043331 96,24.7043331 96,23.6043331 C96,22.5043331 96.9,21.6043331 98,21.6043331 C99.1,21.6043331 100,22.5043331 100,23.6043331 Z" id="Fill-395"></path>
                <path d="M125,45.6043331 C125,46.7043331 124.1,47.6043331 123,47.6043331 C121.9,47.6043331 121,46.7043331 121,45.6043331 C121,44.5043331 121.9,43.6043331 123,43.6043331 C124.1,43.6043331 125,44.5043331 125,45.6043331 Z" id="Fill-396"></path>
                <path d="M120,69.6043331 C120,70.7043331 119.1,71.6043331 118,71.6043331 C116.9,71.6043331 116,70.7043331 116,69.6043331 C116,68.5043331 116.9,67.6043331 118,67.6043331 C119.1,67.6043331 120,68.5043331 120,69.6043331 Z" id="Fill-397"></path>
                <path d="M4,70.6043331 C4,71.7043331 3.1,72.6043331 2,72.6043331 C0.9,72.6043331 0,71.7043331 0,70.6043331 C0,69.5043331 0.9,68.6043331 2,68.6043331 C3.1,68.6043331 4,69.5043331 4,70.6043331 Z" id="Fill-398"></path>
                <path d="M26,89.6043331 C26,90.7043331 25.1,91.6043331 24,91.6043331 C22.9,91.6043331 22,90.7043331 22,89.6043331 C22,88.5043331 22.9,87.6043331 24,87.6043331 C25.1,87.6043331 26,88.5043331 26,89.6043331 Z" id="Fill-399"></path>
                <path d="M29.1199757,58.4654832 C29.1199757,57.2767403 29.501619,56.072374 30.2649171,54.8523484 C31.0282152,53.6323228 32.1418629,52.6219065 33.6058936,51.8210691 C35.0699244,51.0202318 36.7779347,50.6198191 38.7299757,50.6198191 C40.5443728,50.6198191 42.1460234,50.9545391 43.5349757,51.623989 C44.9239279,52.293439 45.9969087,53.2037522 46.7539503,54.3549558 C47.5109918,55.5061595 47.8895069,56.7574491 47.8895069,58.1088621 C47.8895069,59.1724742 47.6736595,60.1046849 47.2419581,60.9055222 C46.8102567,61.7063596 46.297228,62.3976971 45.7028565,62.9795554 C45.1084851,63.5614138 44.0417607,64.5405479 42.5026515,65.9169871 C42.0772066,66.3048927 41.7362302,66.6458691 41.479712,66.9399265 C41.2231938,67.233984 41.0323721,67.5030113 40.9072413,67.7470164 C40.7821105,67.9910215 40.6851355,68.235023 40.6163136,68.4790281 C40.5474916,68.7230332 40.4442602,69.1515999 40.3066163,69.764741 C40.0688677,71.0661017 39.3243504,71.7167722 38.0730421,71.7167722 C37.4223617,71.7167722 36.8749226,71.504053 36.4307081,71.0786082 C35.9864936,70.6531633 35.7643897,70.0212621 35.7643897,69.1828855 C35.7643897,68.1317865 35.9270574,67.2214734 36.2523975,66.4519187 C36.5777377,65.6823641 37.0094326,65.0066677 37.5474952,64.4248093 C38.0855578,63.842951 38.8113057,63.1516135 39.7247608,62.3507761 C40.5255982,61.6500435 41.1043196,61.1213736 41.4609425,60.7647508 C41.8175653,60.4081279 42.1178748,60.0108434 42.36188,59.5728855 C42.6058851,59.1349276 42.7278858,58.6594376 42.7278858,58.1464011 C42.7278858,57.1453545 42.3556272,56.300734 41.6110987,55.6125144 C40.8665703,54.9242948 39.9062055,54.5801902 38.7299757,54.5801902 C37.3535365,54.5801902 36.3399919,54.9274231 35.6893116,55.6218992 C35.0386313,56.3163753 34.4880639,57.3393045 34.0375929,58.6907176 C33.612148,60.104696 32.8050662,60.8116746 31.6163233,60.8116746 C30.9155907,60.8116746 30.3243563,60.5645449 29.8426026,60.0702781 C29.3608489,59.5760113 29.1199757,59.041085 29.1199757,58.4654832 Z M38.2795069,79.0368894 C37.5162088,79.0368894 36.8498971,78.7897597 36.2805518,78.2954929 C35.7112065,77.8012261 35.4265382,77.1098887 35.4265382,76.2214597 C35.4265382,75.4331355 35.7018219,74.769952 36.2523975,74.2318894 C36.8029732,73.6938268 37.4786696,73.4247996 38.2795069,73.4247996 C39.0678312,73.4247996 39.7310146,73.6938268 40.2690772,74.2318894 C40.8071398,74.769952 41.0761671,75.4331355 41.0761671,76.2214597 C41.0761671,77.0973756 40.7946269,77.7855848 40.2315382,78.2861082 C39.6684494,78.7866315 39.0177788,79.0368894 38.2795069,79.0368894 Z" id="?" fill-rule="nonzero" transform="translate(38.504741, 64.828354) rotate(-45.000000) translate(-38.504741, -64.828354) "></path>
            </g>
        </g>
    </g>
</svg>