<?xml version="1.0" encoding="UTF-8"?>
<svg width="570px" height="530px" viewBox="0 0 570 530" version="1.1" xmlns="http://www.w3.org/2000/svg" xmlns:xlink="http://www.w3.org/1999/xlink">
    <!-- Generator: Sketch 53.2 (72643) - https://sketchapp.com -->
    <title>dialog-background</title>
    <desc>Created with Sketch.</desc>
    <g id="Page-18" stroke="none" stroke-width="1" fill="none" fill-rule="evenodd">
        <g id="Artboard-1" transform="translate(-17.000000, -103.000000)">
            <g id="dialog-background" transform="translate(17.200000, 103.008752)">
                <path d="M553.8,396.04243 C553.8,396.04243 191.1,423.04243 13.6,402.44243 C1,269.24243 12.3,171.74243 201.9,232.44243 C291.9,261.24243 305.9,-7.05757042 413.6,0.142429578 C544.4,8.84242958 565.1,263.74243 553.8,396.04243 Z" id="Fill-3" fill="#BDD5DD"></path>
                <path d="M1.70530257e-13,344.64243 C1.70530257e-13,344.64243 217,362.94243 565.6,325.24243" id="Stroke-4" stroke="#E0E8EB" stroke-width="1.98099"></path>
                <path d="M1.70530257e-13,305.24243 C1.70530257e-13,305.24243 212.8,319.84243 565.6,278.04243" id="Stroke-5" stroke="#E0E8EB" stroke-width="1.98099"></path>
                <path d="M1.70530257e-13,265.74243 C1.70530257e-13,265.74243 212.2,279.84243 565.6,227.74243" id="Stroke-6" stroke="#E0E8EB" stroke-width="1.98099"></path>
                <path d="M203.9,215.74243 C296.9,208.84243 419.2,195.24243 565.6,169.24243" id="Stroke-7" stroke="#E0E8EB" stroke-width="1.98099"></path>
                <path d="M273.9,170.74243 C355.5,162.44243 453.3,148.04243 561.4,119.54243" id="Stroke-8" stroke="#E0E8EB" stroke-width="1.98099"></path>
                <path d="M206.3,132.14243 C299.3,125.24243 418.8,102.54243 557.4,57.2424296" id="Stroke-9" stroke="#E0E8EB" stroke-width="1.98099"></path>
                <path d="M357.2,296.04243 C357.2,296.04243 346.8,297.14243 335.7,297.84243 C335.9,284.94243 333.1,268.74243 333.1,268.74243 C333.1,268.74243 351.1,265.14243 356.7,265.84243 C358.1,275.64243 357.2,296.04243 357.2,296.04243 Z" id="Fill-10" fill="#97B9C6"></path>
                <path d="M396.7,247.64243 L375.8,249.54243 C375.8,249.54243 376,228.54243 374.7,221.74243 C381.4,219.14243 387.2,217.94243 396.6,218.04243 C398.9,223.14243 396.7,247.64243 396.7,247.64243 Z" id="Fill-11" fill="#97B9C6"></path>
                <path d="M339.6,202.34243 C340.1,193.14243 338.7,175.84243 338.7,175.84243 C338.7,175.84243 347.3,172.24243 358.5,172.14243 C359.5,178.54243 358.4,200.24243 358.4,200.24243" id="Stroke-12" stroke="#E0E8EB" stroke-width="1.98099"></path>
                <path d="M427.9,93.8424296 C428.6,81.7424296 423.1,60.7424296 423.1,60.7424296 C423.1,60.7424296 434.4,53.4424296 449.2,53.2424296 C450.4,61.6424296 451.8,88.4424296 451.8,88.4424296" id="Stroke-13" stroke="#E0E8EB" stroke-width="1.98099"></path>
                <path d="M213.7,305.44243 C214.1,297.94243 213,283.64243 213,283.64243 C213,283.64243 220.9,281.64243 230.2,281.54243 C230.9,286.74243 231,304.64243 231,304.64243" id="Stroke-14" stroke="#E0E8EB" stroke-width="1.98099"></path>
                <path d="M345.5,342.64243 C345.9,336.44243 344.9,324.64243 344.9,324.64243 C344.9,324.64243 351.5,323.04243 359.2,322.94243 C359.8,327.24243 359.8,342.04243 359.8,342.04243" id="Stroke-15" stroke="#E0E8EB" stroke-width="1.98099"></path>
                <path d="M389.5,295.84243 C390.1,285.34243 388.5,265.44243 388.5,265.44243 C388.5,265.44243 398.3,261.34243 411.2,261.24243 C412.4,268.54243 411.1,293.54243 411.1,293.54243" id="Stroke-16" stroke="#E0E8EB" stroke-width="1.98099"></path>
                <path d="M375,231.94243 C375,231.94243 384.9,227.84243 397.8,227.74243" id="Stroke-17" stroke="#BDD5DD" stroke-width="1.98099"></path>
                <path d="M339.8,183.94243 C339.8,183.94243 347.8,180.94243 358,180.94243" id="Stroke-18" stroke="#E0E8EB" stroke-width="1.98099"></path>
                <path d="M425.8,69.8424296 C425.8,69.8424296 435.4,63.9424296 450.1,63.8424296" id="Stroke-19" stroke="#E0E8EB" stroke-width="1.98099"></path>
                <path d="M333.8,280.54243 C333.8,280.54243 344.7,278.54243 359.1,278.34243" id="Stroke-20" stroke="#BDD5DD" stroke-width="1.98099"></path>
                <path d="M388.9,404.44243 C389.4,394.44243 387.9,375.64243 387.9,375.64243 C387.9,375.64243 397.2,371.84243 409.4,371.74243 C410.4,378.54243 409.3,402.14243 409.3,402.14243" id="Stroke-21" stroke="#E0E8EB" stroke-width="1.98099"></path>
                <path d="M297.1,256.94243 L280,258.54243 C280,258.54243 279.5,243.64243 279.2,235.84243 C289,232.74243 297,232.84243 297,232.84243 L297.1,256.94243 Z" id="Fill-22" fill="#97B9C6"></path>
                <path d="M480.4,137.04243 C480.4,137.04243 473.4,138.74243 463.7,140.24243 C464,133.14243 460.8,118.84243 460.8,118.84243 C460.8,118.84243 471.7,113.44243 479.5,112.84243 C481.9,117.44243 480.4,137.04243 480.4,137.04243 Z" id="Fill-23" fill="#97B9C6"></path>
                <path d="M508.1,72.6424296 C517.3,69.9424296 527.8,65.7424296 527.8,65.7424296" id="Stroke-24" stroke="#E0E8EB" stroke-width="1.98099" stroke-linecap="round"></path>
                <path d="M459.3,125.04243 C459.3,125.04243 470.9,119.14243 485.2,118.94243" id="Stroke-25" stroke="#BDD5DD" stroke-width="1.98099"></path>
                <path d="M242.7,346.44243 L244.1,405.94243 L378.7,405.94243 L378.7,395.04243 C378.7,395.04243 366.5,377.04243 345.4,371.34243 C324.2,365.54243 336.4,336.04243 311.4,336.04243 C291.5,336.04243 260.5,339.14243 248.8,339.24243 C246.2,339.34243 242.7,343.84243 242.7,346.44243 Z" id="Fill-114" fill="#ECF0F1"></path>
                <path d="M242.3,345.24243 L244.1,405.94243 L313.9,405.94243 C313.9,405.94243 306,362.14243 308.7,336.04243 C288.8,336.04243 260.5,337.94243 248.8,339.24243 C246.2,339.54243 242.3,342.54243 242.3,345.24243 Z" id="Fill-115" fill="#C9D4D7"></path>
                <path d="M237.6,408.84243 L237.6,403.64243 C237.6,402.24243 238.7,401.24243 240.1,401.14243 C254.4,401.14243 328.3,400.74243 382.6,395.44243 C383.4,395.34243 384,395.94243 384,396.74243 L384,405.64243 L237.6,408.84243 Z" id="Fill-116" fill="#B4C0C3"></path>
                <path d="M237.5,408.84243 L237.5,403.64243 C237.5,402.24243 238.6,401.24243 240,401.14243 C254.2,401.14243 328.2,400.74243 382.5,395.44243 C383.3,395.34243 383.9,395.94243 383.9,396.74243 L383.9,405.64243" id="Stroke-117" stroke="#203568" stroke-width="1.98099"></path>
                <path d="M378.7,395.54243 C378.7,395.54243 366.5,376.84243 345.4,371.04243 C324.2,365.34243 336.4,335.84243 311.4,335.84243 C291.7,335.84243 259.8,337.74243 247.5,339.94243 C244.7,340.54243 242.3,342.34243 242.3,345.24243 C242.3,345.24243 240.8,371.54243 245,400.54243" id="Stroke-118" stroke="#203568" stroke-width="1.98099"></path>
                <path d="M313,399.74243 C313,399.74243 308,373.84243 308,336.04243" id="Stroke-119" stroke="#203568" stroke-width="1.98099"></path>
                <path d="M318.7,399.24243 C318.7,399.24243 319,406.14243 319.8,408.04243 L318.7,399.24243 Z" id="Fill-120" fill="#B4C0C3"></path>
                <path d="M318.7,399.24243 C318.7,399.24243 319,406.14243 319.8,408.04243" id="Stroke-121" stroke="#203568" stroke-width="1.98099"></path>
                <path d="M283.6,336.64243 L277.3,337.04243 C277.3,337.04243 274.9,328.64243 275.5,317.24243 C278.2,316.84243 279.4,317.04243 281.8,317.24243 C281.3,324.14243 283.6,336.64243 283.6,336.64243 Z" id="Fill-122" fill="#B4C0C3"></path>
                <path d="M283.6,336.64243 L277.3,337.04243 C277.3,337.04243 274.9,328.64243 275.5,317.24243 C278.2,316.84243 279.4,317.04243 281.8,317.24243 C281.3,324.14243 283.6,336.64243 283.6,336.64243 Z" id="Stroke-123" stroke="#203568" stroke-width="1.98099"></path>
                <path d="M305,316.74243 L265.2,318.24243 C262.4,318.34243 260.2,316.04243 260.3,313.24243 L260.7,305.14243 C260.9,302.84243 262.7,300.84243 265,300.64243 L304.8,296.34243 C307.7,296.04243 310.2,299.14243 310.1,302.04243 L309.6,312.24243 C309.5,314.74243 307.5,316.64243 305,316.74243 Z" id="Fill-124" fill="#ECF0F1"></path>
                <path d="M305,316.74243 L265.2,318.24243 C262.4,318.34243 260.2,316.04243 260.3,313.24243 L260.7,305.14243 C260.9,302.84243 262.7,300.84243 265,300.64243 L304.8,296.34243 C307.7,296.04243 310.2,299.14243 310.1,302.04243 L309.6,312.24243 C309.5,314.74243 307.5,316.64243 305,316.74243 Z" id="Stroke-125" stroke="#203568" stroke-width="1.98099"></path>
                <path d="M298.7,316.74243 L258.8,318.24243 C256,318.34243 253.8,316.04243 253.9,313.24243 L254.4,305.04243 C254.5,302.74243 256.3,300.84243 258.6,300.64243 L298.4,297.04243 C301.3,296.74243 303.8,299.14243 303.7,302.04243 L303.2,312.24243 C303.1,314.74243 301.1,316.64243 298.7,316.74243 Z" id="Fill-126" fill="#B4C0C3"></path>
                <path d="M298.7,316.74243 L258.8,318.24243 C256,318.34243 253.8,316.04243 253.9,313.24243 L254.4,305.04243 C254.5,302.74243 256.3,300.84243 258.6,300.64243 L298.4,297.04243 C301.3,296.74243 303.8,299.14243 303.7,302.04243 L303.2,312.24243 C303.1,314.74243 301.1,316.64243 298.7,316.74243 Z" id="Stroke-127" stroke="#203568" stroke-width="1.98099"></path>
                <path d="M13.2,402.94243 C13.2,402.94243 269.4,422.14243 562,391.64243 C446.8,535.14243 66.7,607.44243 13.2,402.94243 Z" id="Fill-128" fill="#BDD5DD"></path>
                <path d="M7.2,404.04243 C7.2,404.04243 293,423.14243 568,391.44243" id="Stroke-129" stroke="#203568" stroke-width="1.98099" stroke-linecap="round"></path>
            </g>
        </g>
    </g>
</svg>