<?xml version="1.0" encoding="UTF-8"?>
<svg width="195px" height="256px" viewBox="0 0 195 256" version="1.1" xmlns="http://www.w3.org/2000/svg" xmlns:xlink="http://www.w3.org/1999/xlink">
    <!-- Generator: Sketch 53.2 (72643) - https://sketchapp.com -->
    <title>man-active</title>
    <desc>Created with Sketch.</desc>
    <defs>
        <path d="M11.2392706,269.93895 L122.139271,273.016798 L123.739271,238.38257 C134.462406,242.477064 144.39319,244.089726 153.531622,243.220555 C167.239271,241.916798 178.442212,216.229214 181.539271,191.701328 C184.636329,167.173442 209.078854,168.316798 209.078854,146.216798 C209.078854,124.116798 148.859889,121.718628 138.139271,132.797069 C130.992192,140.182696 126.624352,137.885073 125.035753,125.904198 C142.269247,73.905008 141.303753,37.2906438 122.139271,16.0611056 C93.3925467,-15.7832016 116.217895,7.31679838 60.5392706,20.6167984 C4.86064624,33.9167984 19.2514887,114.587045 54.4392706,132.797069 C34.0673585,134.944743 19.7673585,144.880006 11.5392706,162.602856 C-0.802861104,189.187132 -3.21519755,245.798252 4.16203655,269.93895 L11.2392706,269.93895 Z" id="path-1"></path>
    </defs>
    <g id="Page-18" stroke="none" stroke-width="1" fill="none" fill-rule="evenodd">
        <g id="Artboard-1" transform="translate(-58.000000, -256.000000)">
            <g id="man-active" transform="translate(50.160729, 238.334383)">
                <mask id="mask-2" fill="white">
                    <use xlink:href="#path-1"></use>
                </mask>
                <g id="Path"></g>
                <g mask="url(#mask-2)">
                    <g transform="translate(8.898182, 19.216798)">
                        <path d="M186.741089,134 C186.741089,134 194.641089,131.8 191.341089,135.9 C187.541089,140.7 179.341089,142.9 179.041089,143.4 L186.741089,134 Z" id="Fill-26" stroke="none" fill="#EDC9AD" fill-rule="evenodd"></path>
                        <path d="M186.741089,134 C186.741089,134 194.641089,131.8 191.441089,135.9 C187.541089,140.7 179.441089,142.9 179.041089,143.4" id="Stroke-27" stroke="#203568" stroke-width="1.98099" fill="none" stroke-linecap="round"></path>
                        <path d="M86.9410889,112.6 C83.9410889,122 89.0410889,134.8 88.6410889,140.7 C88.2410889,146.5 47.1410889,142.3 49.1410889,133.9 C52.1410889,121.3 56.0410889,117 57.1410889,102.3 C57.7410889,93.9 88.1410889,108.5 86.9410889,112.6 Z" id="Fill-28" stroke="none" fill="#EDC9AD" fill-rule="evenodd"></path>
                        <path d="M72.3410889,111.4 C72.3410889,111.4 70.4410889,136.7 63.6410889,137.9 C61.4410889,138.3 52.4410889,132.3 51.6410889,125.9 C54.1410889,120.1 58.0410889,112.2 57.8410889,104.9 C71.5410889,112.4 72.3410889,111.4 72.3410889,111.4 Z" id="Fill-29" stroke="none" fill="#D1AC92" fill-rule="evenodd"></path>
                        <path d="M86.9410889,112.6 C83.9410889,122 89.1410889,134.8 88.7410889,140.7 C88.2410889,146.5 47.2410889,142.3 49.2410889,133.9 C52.2410889,121.3 56.1410889,117 57.2410889,102.3 C57.8410889,93.9 88.2410889,108.5 86.9410889,112.6 Z" id="Stroke-30" stroke="#203568" stroke-width="1.98099" fill="none"></path>
                        <path d="M108.041089,56.5 C108.041089,56.5 108.441089,60.1 108.741089,65.5 C109.441089,79.6 109.341089,106 98.6410889,111.1 C83.7410889,118 64.2410889,109 55.4410889,102.4 C46.5410889,95.7 47.4410889,87.7 47.4410889,87.7 C47.4410889,87.7 37.6410889,86.8 38.2410889,76.8 C38.8410889,66.8 44.0410889,42.5 49.5410889,39.8 C54.9410889,37 83.4410889,24.9 94.6410889,32.5 C105.841089,40.1 108.041089,56.5 108.041089,56.5 Z" id="Fill-31" stroke="none" fill="#EDC9AD" fill-rule="evenodd"></path>
                        <path d="M47.6410889,74.6 C47.6410889,74.6 52.7410889,76.1 51.0410889,81.6" id="Stroke-32" stroke="#203568" stroke-width="1.98099" fill="none" stroke-linecap="round" stroke-linejoin="round"></path>
                        <path d="M73.8410889,142.2 C73.8410889,142.2 76.8410889,152.1 75.9410889,170.7" id="Stroke-69" stroke="#203568" stroke-width="1.98099" fill="none" stroke-linecap="round"></path>
                        <path d="M166.741089,140.7 C166.741089,140.7 174.441089,137.8 178.541089,133.9 L166.741089,140.7 Z" id="Fill-70" stroke="none" fill="#EDC9AD" fill-rule="evenodd"></path>
                        <path d="M166.741089,140.7 C166.741089,140.7 174.441089,137.8 178.541089,133.9" id="Stroke-71" stroke="#203568" stroke-width="1.98099" fill="none" stroke-linecap="round"></path>
                        <path d="M159.841089,142.8 C158.641089,143.3 157.341089,144.2 156.841089,145.7 L159.841089,142.8 Z" id="Fill-72" stroke="none" fill="#EDC9AD" fill-rule="evenodd"></path>
                        <path d="M159.841089,142.8 C158.641089,143.3 157.341089,144.2 156.841089,145.7" id="Stroke-73" stroke="#203568" stroke-width="1.98099" fill="none" stroke-linecap="round"></path>
                        <path d="M105.841089,47.4 C106.441089,47.6 107.941089,54.4 107.941089,54.4 C116.741089,50.3 118.141089,36.6 113.641089,35.4 C120.141089,17.5 110.441089,7.2 96.9410889,0 C81.4410889,24.9 35.7410889,-3.4 34.5410889,30.4 C17.8410889,38.4 24.4410889,68.6 38.0410889,77.2 C40.0410889,64.4 52.6410889,67.5 56.1410889,75 C56.4410889,75.5 57.0410889,75.4 57.3410889,74.9 C60.2410889,68.7 61.2410889,61.3 57.5410889,52.2 C57.5410889,52.2 60.2410889,50.2 60.9410889,46.9 C64.6410889,48.5 93.2410889,57.4 105.841089,47.4 Z" id="Fill-33" stroke="none" fill="#B9251D" fill-rule="evenodd"></path>
                        <path d="M96.9410889,1.4 C69.0410889,64.9 106.641089,45.3 106.641089,45.3 C106.641089,45.3 107.341089,49.9 107.941089,53.9 C112.641089,53.3 119.541089,39.7 113.441089,35.4 C117.841089,24.7 117.041089,11.3 96.9410889,1.4 Z" id="Fill-34" stroke="none" fill="#E1524F" fill-rule="evenodd"></path>
                        <path d="M58.3410889,73.9 C58.3410889,73.9 56.8410889,87.1 66.5410889,90.9 C74.1410889,93.9 86.8410889,80.9 100.941089,83.9 C108.041089,85.5 106.741089,94.9 106.741089,94.9 C106.741089,94.9 107.541089,111.1 91.2410889,113.1 C74.8410889,115.1 47.1410889,104.9 47.5410889,87.2 C54.3410889,87.8 55.8410889,81.1 56.3410889,75.9 C56.6410889,73 58.3410889,73.9 58.3410889,73.9 Z" id="Fill-35" stroke="none" fill="#BA9783" fill-rule="evenodd"></path>
                        <path d="M105.641089,47.4 C106.241089,47.6 107.841089,54.4 107.841089,54.4 C116.541089,50.3 117.941089,36.6 113.441089,35.4 C119.941089,17.5 110.241089,7.2 96.7410889,0 C81.2410889,24.9 35.5410889,-3.4 34.3410889,30.4 C17.7410889,38.4 24.2410889,68.6 37.8410889,77.2 C39.8410889,64.4 52.4410889,67.5 55.9410889,75 C56.2410889,75.5 56.9410889,75.4 57.1410889,74.9 C60.0410889,68.7 61.0410889,61.3 57.3410889,52.2 C57.3410889,52.2 60.0410889,50.2 60.7410889,46.9 C64.7410889,48.6 97.0410889,59.4 107.741089,45" id="Stroke-36" stroke="#203568" stroke-width="1.98099" fill="none" stroke-linecap="round"></path>
                        <path d="M61.1410889,44 C60.8410889,51.9 55.2410889,53.6 53.1410889,53.3" id="Stroke-37" stroke="#203568" stroke-width="1.98099" fill="none" stroke-linecap="round"></path>
                        <path d="M108.741089,68.6 C109.341089,83.2 108.541089,106.3 98.4410889,111 C83.6410889,118 64.0410889,109 55.2410889,102.3 C46.4410889,95.7 47.2410889,87.7 47.2410889,87.7 C47.2410889,87.7 37.3410889,86.8 37.9410889,76.8" id="Stroke-38" stroke="#203568" stroke-width="1.98099" fill="none" stroke-linecap="round"></path>
                        <path d="M105.941089,48 C107.641089,52.7 107.941089,56.4 107.941089,56.4" id="Stroke-39" stroke="#203568" stroke-width="1.98099" fill="none" stroke-linecap="round"></path>
                        <path d="M100.941089,92.4 C98.8410889,95.8 88.6410889,97.9 85.7410889,96.9" id="Stroke-40" stroke="#203568" stroke-width="1.98099" fill="none" stroke-linecap="round"></path>
                        <path d="M85.9410889,68.4 C86.3410889,70 85.5410889,71.6 84.1410889,71.9 C82.7410889,72.1 81.4410889,71.1 81.0410889,69.4 C80.7410889,67.7 81.5410889,66.2 82.8410889,65.9 C84.2410889,65.6 85.6410889,66.7 85.9410889,68.4 Z" id="Fill-41" stroke="none" fill="#FFFFFF" fill-rule="evenodd"></path>
                        <path d="M85.9410889,68.4 C86.3410889,70 85.5410889,71.6 84.1410889,71.9 C82.7410889,72.1 81.4410889,71.1 81.0410889,69.4 C80.7410889,67.7 81.5410889,66.2 82.8410889,65.9 C84.2410889,65.6 85.6410889,66.7 85.9410889,68.4 Z" id="Stroke-42" stroke="#203568" stroke-width="1.98099" fill="none" stroke-linecap="round"></path>
                        <path d="M105.141089,68.9 C105.141089,70.4 104.141089,71.6 102.941089,71.6 C101.741089,71.6 100.741089,70.4 100.741089,68.9 C100.741089,67.4 101.741089,66.1 102.941089,66.1 C104.141089,66.1 105.141089,67.4 105.141089,68.9 Z" id="Fill-43" stroke="none" fill="#FFFFFF" fill-rule="evenodd"></path>
                        <path d="M105.141089,68.9 C105.141089,70.4 104.141089,71.6 102.941089,71.6 C101.641089,71.6 100.641089,70.4 100.641089,68.9 C100.641089,67.4 101.641089,66.1 102.941089,66.1 C104.141089,66.1 105.141089,67.4 105.141089,68.9 Z" id="Stroke-44" stroke="#203568" stroke-width="1.98099" fill="none" stroke-linecap="round"></path>
                        <path d="M76.3410889,64.1 C78.3410889,61.2 83.0410889,58.7 83.0410889,58.7" id="Stroke-45" stroke="#203568" stroke-width="1.98099" fill="none" stroke-linecap="round"></path>
                        <path d="M104.141089,58.5 C104.141089,58.5 106.741089,60.1 108.441089,62.8" id="Stroke-46" stroke="#203568" stroke-width="1.98099" fill="none" stroke-linecap="round"></path>
                        <path d="M148.141089,160.4 C148.141089,160.4 148.341089,196.8 133.241089,192.8 C131.241089,195.1 126.141089,199.8 113.241089,209.3 C126.041089,223.3 148.641089,222.4 158.041089,206.6 C167.341089,191 166.141089,161 166.241089,153.5 C165.441089,153.8 192.041089,138 187.441089,126.3 C186.641089,124.4 178.041089,134.9 174.441089,135.5 C165.541089,137.1 158.441089,139.4 153.441089,135.3 C146.441089,125 141.241089,125 139.341089,124.9 C137.841089,124.8 135.941089,127.6 142.941089,135.4 C145.641089,138.4 141.741089,143 147.541089,151.5 C147.741089,156.5 148.141089,160.4 148.141089,160.4 Z" id="Fill-47" stroke="none" fill="#EDC9AD" fill-rule="evenodd"></path>
                        <path d="M148.541089,156.5 C148.541089,156.5 152.241089,151.1 156.341089,158.2 C159.741089,163.9 167.241089,212.4 139.541089,218.4 C121.641089,222.3 114.841089,209.8 114.841089,209.8 L129.141089,196.1 C129.141089,196.1 136.041089,200.6 141.641089,195.1 C148.741089,188.2 148.541089,161 148.541089,156.5 Z" id="Fill-48" stroke="none" fill="#D1AC92" fill-rule="evenodd"></path>
                        <path d="M110.641089,179.2 C114.441089,218.4 102.541089,241.1 112.941089,288.5 C120.741089,324.9 8.04108887,284.9 8.04108887,284.9 C8.04108887,284.9 -9.35891113,168.2 15.2410889,140.7 C20.4410889,134.8 34.9410889,134.5 49.4410889,130.4 C51.8410889,133.7 63.9410889,141.7 74.2410889,141.6 C82.1410889,141.4 86.7410889,134.6 88.0410889,131.5 C98.3410889,132.3 113.841089,135.4 117.441089,155.7 C119.541089,167.6 124.741089,183.9 132.241089,192.9 C125.741089,200.4 122.641089,203 113.741089,210.2 L110.641089,179.2 Z" id="Fill-49" stroke="none" fill="#E5A355" fill-rule="evenodd"></path>
                        <path d="M18.7410889,137.8 C18.7410889,137.8 5.44108887,181.6 11.4410889,213.3 C5.54108887,212.1 2.14108887,212.2 2.14108887,212.2 C2.14108887,212.2 -2.95891113,154.9 18.7410889,137.8 Z" id="Fill-50" stroke="none" fill="#C68640" fill-rule="evenodd"></path>
                        <path d="M32.4410889,178.2 C32.4410889,178.2 33.9410889,228.9 45.4410889,253.8 C39.5410889,252.6 31.0410889,252.9 31.0410889,252.9 C31.0410889,252.9 27.2410889,205.1 32.4410889,178.2 Z" id="Fill-51" stroke="none" fill="#C68640" fill-rule="evenodd"></path>
                        <path d="M111.341089,178.7 C111.341089,178.7 114.541089,185.6 121.741089,190.7 C116.141089,194.7 111.841089,197.4 111.841089,197.4 C111.841089,197.4 112.041089,190.9 111.341089,178.7 Z" id="Fill-52" stroke="none" fill="#C68640" fill-rule="evenodd"></path>
                        <path d="M111.541089,206.6 C111.541089,206.6 118.041089,218.4 135.041089,218.9 C169.741089,219.9 165.941089,159.9 165.941089,159.9 C165.941089,159.9 165.741089,155.7 165.741089,153.6 C187.841089,143.3 190.241089,124 187.141089,125.6 C183.641089,127.5 180.641089,133.6 176.041089,134.9 C171.341089,136.3 156.441089,140.6 152.541089,133.9 C150.641089,130.7 141.341089,122.1 138.441089,125.4 C135.741089,128.4 142.841089,132.5 143.441089,136.9 C144.041089,148.4 147.541089,151.5 147.541089,151.5 C147.541089,151.5 148.041089,159.9 147.941089,159.9 C149.441089,189.4 130.441089,219.6 117.341089,155.7 C113.241089,135.5 98.4410889,133.1 88.0410889,132.4 C86.7410889,135.5 82.1410889,141.4 74.1410889,141.6 C63.8410889,141.7 52.2410889,133.5 49.8410889,130.3 C46.9410889,132.2 20.3410889,134.8 15.1410889,140.7 C3.94108887,153.2 1.44108887,184.3 2.04108887,214.4" id="Stroke-53" stroke="#203568" stroke-width="1.98099" fill="none"></path>
                        <path d="M111.841089,198.3 C111.841089,198.3 111.841089,206.6 111.041089,210.3 C116.341089,208.5 131.241089,195.8 133.341089,191.8 C134.341089,190 131.041089,184.1 127.041089,184.1 C120.641089,192.7 113.841089,195.8 111.841089,198.3 Z" id="Fill-54" stroke="none" fill="#FFFFFF" fill-rule="evenodd"></path>
                        <path d="M121.541089,189.9 C121.541089,189.9 124.741089,193.4 129.241089,196.1 C125.541089,201.6 111.941089,209.9 111.941089,209.9 C111.941089,209.9 110.241089,202.7 112.741089,196.9 C115.941089,195.4 118.441089,192.6 121.541089,189.9 Z" id="Fill-55" stroke="none" fill="#D9DEDF" fill-rule="evenodd"></path>
                        <path d="M111.841089,198.3 C111.841089,198.3 111.441089,205.2 111.041089,210.3 C116.341089,208.5 131.241089,195.7 133.441089,191.8 C134.441089,189.9 131.141089,184 127.141089,184 C120.741089,192.6 113.841089,195.8 111.841089,198.3 Z" id="Stroke-56" stroke="#203568" stroke-width="1.98099" fill="none" stroke-linecap="round"></path>
                        <path d="M110.941089,179.1 C114.741089,218.4 102.841089,241.1 113.241089,288.5" id="Stroke-57" stroke="#203568" stroke-width="1.98099" fill="none" stroke-linecap="round"></path>
                        <path d="M32.4410889,178.5 C32.4410889,178.5 29.3410889,206.4 30.0410889,222.7" id="Stroke-58" stroke="#203568" stroke-width="1.98099" fill="none" stroke-linecap="round"></path>
                        <path d="M2.64108887,223.1 C2.64108887,223.1 3.04108887,253 6.14108887,258.6 C9.24108887,264.2 32.1410889,259.7 32.1410889,259.7 C32.1410889,259.7 29.8410889,237.9 30.0410889,222.7 C20.3410889,225.9 2.64108887,223.1 2.64108887,223.1 Z" id="Fill-59" stroke="none" fill="#EDC9AD" fill-rule="evenodd"></path>
                        <path d="M2.64108887,223.1 C2.64108887,223.1 2.24108887,246.1 4.34108887,251.7 C6.44108887,257.4 14.9410889,252.6 14.9410889,252.6 C14.9410889,252.6 12.0410889,239 12.1410889,223.8 C4.14108887,224.8 2.64108887,223.1 2.64108887,223.1 Z" id="Fill-60" stroke="none" fill="#D1AC92" fill-rule="evenodd"></path>
                        <path d="M2.34108887,223.1 C2.34108887,223.1 2.74108887,253 5.84108887,258.6 C8.94108887,264.2 31.8410889,259.7 31.8410889,259.7 C31.8410889,259.7 29.5410889,237.9 29.7410889,222.7 C20.0410889,225.9 2.34108887,223.1 2.34108887,223.1 Z" id="Stroke-61" stroke="#203568" stroke-width="1.98099" fill="none"></path>
                        <path d="M1.94108887,212.2 C1.94108887,212.2 -2.35891113,216.1 1.84108887,222.3 C7.44108887,224.5 25.6410889,224.5 30.1410889,222.7 C32.2410889,221.9 33.6410889,214.7 30.2410889,211.9 C19.0410889,214.7 5.34108887,211.6 1.94108887,212.2 Z" id="Fill-62" stroke="none" fill="#FFFFFF" fill-rule="evenodd"></path>
                        <path d="M9.74108887,212.3 C9.74108887,212.3 6.74108887,218.5 10.6410889,223.8 C4.84108887,222.6 3.14108887,222.9 3.14108887,222.9 C3.14108887,222.9 -3.15891113,217.9 2.14108887,212.2 C4.64108887,212.4 6.44108887,212.9 9.74108887,212.3 Z" id="Fill-63" stroke="none" fill="#D9DEDF" fill-rule="evenodd"></path>
                        <path d="M2.14108887,212.2 C2.14108887,212.2 -2.15891113,216.1 2.04108887,222.3 C7.64108887,224.5 25.7410889,224.5 30.2410889,222.7 C32.3410889,221.9 33.7410889,214.7 30.4410889,211.9 C19.1410889,214.7 5.44108887,211.6 2.14108887,212.2 Z" id="Stroke-64" stroke="#203568" stroke-width="1.98099" fill="none" stroke-linecap="round"></path>
                        <path d="M45.5410889,131.2 C46.9410889,128 48.6410889,126.1 51.1410889,124.7 C51.6410889,129.4 57.1410889,138.3 72.0410889,141.2 C69.5410889,143 68.5410889,148 68.2410889,150.2 C68.1410889,150.8 67.6410889,151.2 67.0410889,151 C55.8410889,146.8 45.8410889,135.5 45.5410889,131.2 Z" id="Fill-65" stroke="none" fill="#FFFFFF" fill-rule="evenodd"></path>
                        <path d="M45.5410889,131.2 C46.9410889,128 48.6410889,126.1 51.1410889,124.7 C51.6410889,129.4 57.1410889,138.3 72.0410889,141.2 C69.5410889,143 68.5410889,148 68.2410889,150.2 C68.1410889,150.8 67.6410889,151.2 67.0410889,151 C55.8410889,146.8 45.8410889,135.5 45.5410889,131.2 Z" id="Stroke-66" stroke="#203568" stroke-width="1.98099" fill="none" stroke-linecap="round"></path>
                        <path d="M92.5410889,132.8 C90.9410889,131.1 89.4410889,130.7 88.1410889,130 C87.9410889,132.4 85.0410889,141.6 75.9410889,141.7 C77.2410889,142.6 82.1410889,147.4 82.7410889,149.4 C82.9410889,149.9 83.5410889,150.3 84.0410889,150 C91.5410889,145 93.3410889,135.7 92.5410889,132.8 Z" id="Fill-67" stroke="none" fill="#FFFFFF" fill-rule="evenodd"></path>
                        <path d="M92.6410889,132.8 C91.0410889,131.1 89.5410889,130.7 88.2410889,130 C88.0410889,132.4 85.1410889,141.6 76.1410889,141.7 C77.4410889,142.6 82.2410889,147.4 82.9410889,149.4 C83.1410889,149.9 83.7410889,150.3 84.1410889,150 C91.6410889,145 93.5410889,135.7 92.6410889,132.8 Z" id="Stroke-68" stroke="#203568" stroke-width="1.98099" fill="none" stroke-linecap="round"></path>
                    </g>
                </g>
            </g>
        </g>
    </g>
</svg>