<svg xmlns="http://www.w3.org/2000/svg" viewBox="0 0 565.87 410.19"><defs><style>.cls-1{fill:#bfd6dd;}.cls-2,.cls-4{fill:none;stroke-miterlimit:10;stroke-width:2px;}.cls-2{stroke:#e1e9ec;}.cls-3{fill:#99bac6;}.cls-4{stroke:#bfd6dd;}</style></defs><title>part-upper</title><g id="Layer_2" data-name="Layer 2"><g id="Layer_1-2" data-name="Layer 1"><path class="cls-1" d="M553.73,396.1S191.11,423,13.61,402.47C1,269.19,12.31,171.76,201.87,232.42,291.84,261.21,305.91-7,413.53.14,544.37,8.86,565.09,263.72,553.73,396.1Z"/><path class="cls-2" d="M.08,345.43s217,18.23,565.61-19.44"/><path class="cls-2" d="M.08,306s212.85,14.65,565.61-27.2"/><path class="cls-2" d="M.08,266.5s212.26,14.05,565.61-38"/><path class="cls-2" d="M204,216.47c93-6.93,215.29-20.47,361.69-46.53"/><path class="cls-2" d="M204,177.6c93-6.92,216.4-20.21,357.51-57.28"/><path class="cls-2" d="M206.36,132.87c93-6.92,212.55-29.59,351.11-74.88"/><path class="cls-3" d="M357.25,296.77s-10.39,1.12-21.45,1.72c.15-12.85-2.6-29.07-2.6-29.07s18-3.59,23.59-2.82C358.15,276.37,357.25,296.77,357.25,296.77Z"/><path class="cls-3" d="M396.78,248.34l-20.91,1.92s.21-21-1.05-27.78c6.65-2.61,12.48-3.73,21.81-3.71C399,223.9,396.78,248.34,396.78,248.34Z"/><path class="cls-2" d="M339.65,203.05c.49-9.17-.9-26.49-.9-26.49a58.1,58.1,0,0,1,19.82-3.64c.95,6.32-.1,28.08-.1,28.08"/><path class="cls-2" d="M428,94.53c.64-12-4.77-33-4.77-33a53,53,0,0,1,26-7.47c1.25,8.3,2.56,35.09,2.56,35.09"/><path class="cls-2" d="M213.8,306.18c.4-7.52-.74-21.75-.74-21.75a80.55,80.55,0,0,1,17.17-2.09c.78,5.19.81,23.06.81,23.06"/><path class="cls-2" d="M345.63,343.4c.33-6.22-.61-18-.61-18a66.2,66.2,0,0,1,14.18-1.72c.65,4.28.68,19,.68,19"/><path class="cls-2" d="M389.58,296.62c.56-10.53-1-30.42-1-30.42A66.72,66.72,0,0,1,411.3,262c1.09,7.25-.11,32.25-.11,32.25"/><path class="cls-4" d="M375.09,232.71a67,67,0,0,1,22.76-4.18"/><path class="cls-2" d="M340.88,184.67a47.67,47.67,0,0,1,17.2-3"/><path class="cls-2" d="M426.86,70.54s6.56-5.81,21.27-6"/><path class="cls-4" d="M333.84,281.23a179.52,179.52,0,0,1,25.31-2.1"/><path class="cls-2" d="M389,405.13c.53-9.92-1-28.69-1-28.69a62.83,62.83,0,0,1,21.47-3.94c1,6.84-.11,30.42-.11,30.42"/><path class="cls-3" d="M297.18,257.67l-17.05,1.56s-.57-14.89-.85-22.64a65.83,65.83,0,0,1,17.77-3Z"/><path class="cls-3" d="M480.49,137.81s-7,1.64-16.74,3.14c.36-7.08-2.86-21.4-2.86-21.4s10.93-5.36,18.71-6C482,118.23,480.49,137.81,480.49,137.81Z"/><path class="cls-4" d="M459.4,125.78a65.48,65.48,0,0,1,25.88-6.06"/></g></g></svg>