<svg xmlns="http://www.w3.org/2000/svg" viewBox="0 0 562.76 234.34"><defs><style>.cls-1,.cls-7{fill:#edf1f2;}.cls-2{fill:#cad5d8;}.cls-3{fill:#b5c1c4;}.cls-3,.cls-4,.cls-6,.cls-7{stroke:#213666;stroke-miterlimit:10;stroke-width:2px;}.cls-4,.cls-6{fill:none;}.cls-5{fill:#bfd6dd;}.cls-6{stroke-linecap:round;}</style></defs><title>part-lower</title><g id="Layer_2" data-name="Layer 2"><g id="Layer_1-2" data-name="Layer 1"><path class="cls-1" d="M218.86,46.15V110.6H353.39V99.71S341.22,81.77,320.08,76s-9-35.24-33.95-35.24c-19.92,0-50.82.41-62.54.58A4.79,4.79,0,0,0,218.86,46.15Z"/><path class="cls-2" d="M217.07,49.91l1.79,60.69h69.73s-7.85-43.72-5.15-69.83c-19.92,0-48.21,1.89-59.87,3.24C221,44.31,217.07,47.28,217.07,49.91Z"/><path class="cls-3" d="M212.39,113.51v-5.17a2.45,2.45,0,0,1,2.44-2.45c14.28,0,88.25-.44,142.51-5.76a1.29,1.29,0,0,1,1.42,1.29v8.88"/><path class="cls-4" d="M353.39,100.21s-12.17-18.66-33.31-24.43-9-35.23-33.95-35.23c-19.69,0-51.57,1.89-63.93,4.15-2.8.52-5.13,2.36-5.13,5.21a304.6,304.6,0,0,0,2.69,55.38"/><path class="cls-3" d="M287.7,104.4s-4.94-25.86-4.94-63.63"/><path class="cls-5" d="M7,107.68s256.11,19.14,548.8-11.36C440.56,239.82,60.48,312.16,7,107.68Z"/><path class="cls-6" d="M1,107.68s285.72,19.14,560.76-12.55"/><path class="cls-3" d="M293.45,104s.3,6.87,1.05,8.82"/><path class="cls-3" d="M258.32,41.32l-6.27.45A66.14,66.14,0,0,1,250.25,22a17.65,17.65,0,0,1,6.28,0C256.08,28.91,258.32,41.32,258.32,41.32Z"/><path class="cls-7" d="M279.82,21.45,239.94,22.9A4.7,4.7,0,0,1,235.08,18l.43-8.15a4.7,4.7,0,0,1,4.26-4.44L279.57,1c2.9-.27,5.36,2.83,5.23,5.73L284.34,17A4.7,4.7,0,0,1,279.82,21.45Z"/><path class="cls-3" d="M273.43,21.45,233.55,22.9A4.7,4.7,0,0,1,228.69,18l.43-8.15a4.7,4.7,0,0,1,4.26-4.44l39.79-3.61a4.8,4.8,0,0,1,5.24,5L278,17A4.7,4.7,0,0,1,273.43,21.45Z"/></g></g></svg>