<?xml version="1.0" encoding="UTF-8"?>
<svg viewBox="0 0 90 84" version="1.1" xmlns="http://www.w3.org/2000/svg" xmlns:xlink="http://www.w3.org/1999/xlink">
    <!-- Generator: Sketch 53.2 (72643) - https://sketchapp.com -->
    <title>Group 2</title>
    <desc>Created with Sketch.</desc>
    <g id="Page-4" stroke="none" stroke-width="1" fill="none" fill-rule="evenodd">
        <g id="f47a0-75wi7" transform="translate(-483.000000, -209.000000)">
            <g id="Group-2" transform="translate(483.000000, 211.000000)">
                <path d="M62.2425781,52.2479707 L62.6039063,50.4217988 C61.7054643,50.4022674 61.25625,50.0441981 61.25625,49.34758 C61.25625,49.0220576 61.3685536,48.7567608 61.5931641,48.5516816 C61.8177746,48.3466025 62.1481749,48.2440644 62.584375,48.2440644 L63.0433594,48.2440644 L63.6,45.4022675 L62.584375,45.4022675 C62.1611958,45.4022675 61.8340506,45.2964743 61.6029297,45.0848847 C61.3718087,44.8732951 61.25625,44.6145087 61.25625,44.3085175 C61.25625,43.9829951 61.3685536,43.7209534 61.5931641,43.5223847 C61.8177746,43.323816 62.1481749,43.2245332 62.584375,43.2245332 L64.0394531,43.2245332 L64.4984375,40.988205 C64.5700524,40.610599 64.6498042,40.314378 64.7376953,40.0995332 C64.8255864,39.8846883 64.9460279,39.7219296 65.0990234,39.6112519 C65.252019,39.5005743 65.4522123,39.4452363 65.6996094,39.4452363 C66.0446632,39.4452363 66.3083324,39.5363812 66.490625,39.7186738 C66.6729176,39.9009664 66.7640625,40.135339 66.7640625,40.4217988 C66.7640625,40.4869033 66.7087245,40.815676 66.5980469,41.4081269 L66.2367188,43.2245332 L68.3753906,43.2245332 L68.8441406,40.988205 C68.9092451,40.6496617 68.9710935,40.3762269 69.0296875,40.1678925 C69.0882815,39.9595582 69.1940748,39.7837787 69.3470703,39.6405488 C69.5000659,39.4973189 69.7230454,39.425705 70.0160156,39.425705 C70.354559,39.425705 70.6166006,39.5135948 70.8021484,39.6893769 C70.9876962,39.865159 71.0804688,40.1027869 71.0804688,40.4022675 C71.0804688,40.538987 71.0723308,40.6724492 71.0560547,40.8026582 C71.0397786,40.9328671 71.0186199,41.0581914 70.9925781,41.1786347 C70.9665363,41.299078 70.9502604,41.3755747 70.94375,41.4081269 L70.5824219,43.2440644 C71.5134161,43.2635958 71.9789063,43.6249203 71.9789063,44.3280488 C71.9789063,44.6535713 71.8682303,44.9139853 71.646875,45.1092988 C71.4255197,45.3046123 71.096747,45.4022675 70.6605469,45.4022675 L70.1625,45.4022675 L69.5765625,48.2440644 L70.6605469,48.2440644 C71.096747,48.2440644 71.4255197,48.34823 71.646875,48.5565644 C71.8682303,48.7648988 71.9789063,49.028568 71.9789063,49.34758 C71.9789063,49.6665921 71.8698579,49.9253785 71.6517578,50.1239472 C71.4336578,50.3225159 71.1032574,50.4217988 70.6605469,50.4217988 L69.1566406,50.4217988 L68.6976563,52.6678925 C68.6260413,53.0259672 68.5625654,53.3026572 68.5072266,53.4979707 C68.4518877,53.6932841 68.3460945,53.8641809 68.1898438,54.010666 C68.033593,54.1571511 67.8089858,54.2303925 67.5160156,54.2303925 C67.1904932,54.2303925 66.9333343,54.1392476 66.7445313,53.956955 C66.5557282,53.7746625 66.4613281,53.5370346 66.4613281,53.2440644 C66.4613281,52.977136 66.5069006,52.6451081 66.5980469,52.2479707 L66.959375,50.4217988 L64.8011719,50.4217988 L64.3421875,52.6678925 C64.2249994,53.2212807 64.1029303,53.6200398 63.9759766,53.8641816 C63.8490228,54.1083234 63.5772156,54.2303925 63.1605469,54.2303925 C62.828514,54.2303925 62.5680999,54.1392476 62.3792969,53.956955 C62.1904938,53.7746625 62.0960938,53.5370346 62.0960938,53.2440644 C62.0960938,53.0943241 62.1139972,52.9266825 62.1498047,52.7411347 C62.1856122,52.5555869 62.2165363,52.3912005 62.2425781,52.2479707 Z M67.9554688,45.4022675 L65.7972656,45.4022675 L65.2210938,48.2440644 L67.3988281,48.2440644 L67.9554688,45.4022675 Z" id="#" fill="#FFFFFF" fill-rule="nonzero" transform="translate(66.617578, 46.828049) rotate(-345.000000) translate(-66.617578, -46.828049) "></path>
                <path d="M65,77.0511811 C65,78.1511811 64.1,79.0511811 63,79.0511811 C61.9,79.0511811 61,78.1511811 61,77.0511811 C61,75.9511811 61.9,75.0511811 63,75.0511811 C64.1,75.0511811 65,75.9511811 65,77.0511811 Z" id="Fill-465" fill="#FFFFFF"></path>
                <path d="M81,20.0511811 C81,21.1511811 80.1,22.0511811 79,22.0511811 C77.9,22.0511811 77,21.1511811 77,20.0511811 C77,18.9511811 77.9,18.0511811 79,18.0511811 C80.1,18.0511811 81,18.9511811 81,20.0511811 Z" id="Fill-466" fill="#FFFFFF"></path>
                <path d="M4,44.0511811 C4,45.1511811 3.1,46.0511811 2,46.0511811 C0.9,46.0511811 0,45.1511811 0,44.0511811 C0,42.9511811 0.9,42.0511811 2,42.0511811 C3.1,42.0511811 4,42.9511811 4,44.0511811 Z" id="Fill-467" fill="#FFFFFF"></path>
                <path d="M90,79.0511811 C90,80.1511811 89.1,81.0511811 88,81.0511811 C86.9,81.0511811 86,80.1511811 86,79.0511811 C86,77.9511811 86.9,77.0511811 88,77.0511811 C89.1,77.0511811 90,77.9511811 90,79.0511811 Z" id="Fill-468" fill="#FFFFFF"></path>
                <path d="M43,46.0511811 C43,47.1511811 42.1,48.0511811 41,48.0511811 C39.9,48.0511811 39,47.1511811 39,46.0511811 C39,44.9511811 39.9,44.0511811 41,44.0511811 C42.1,44.0511811 43,44.9511811 43,46.0511811 Z" id="Fill-469" fill="#FFFFFF"></path>
                <path d="M32,5.0511811 C32,6.1511811 31.1,7.0511811 30,7.0511811 C28.9,7.0511811 28,6.1511811 28,5.0511811 C28,3.9511811 28.9,3.0511811 30,3.0511811 C31.1,3.0511811 32,3.9511811 32,5.0511811 Z" id="Fill-470" fill="#FFFFFF"></path>
                <path d="M17.246621,29.1189415 C17.7359789,27.9331897 18.3900147,27.0438892 19.2087481,26.4510133 C20.0274815,25.8581374 20.8320867,25.5617039 21.6225879,25.5617039 C22.1684101,25.5617039 22.6389395,25.6981574 23.0341901,25.9710686 C23.4294407,26.2439797 23.7541059,26.5968767 24.0081956,27.0297702 C24.2622853,27.4626637 24.4552023,27.9614249 24.5869525,28.5260686 C24.7187027,29.0907123 24.7845768,29.6553475 24.7845768,30.2199912 C24.7845768,30.8599208 24.7187027,31.4339666 24.5869525,31.9421459 C24.6810598,31.9421459 24.7657551,31.9468512 24.8410409,31.9562619 C24.9163267,31.9656727 25.001022,31.970378 25.0951293,31.970378 C25.4903799,31.970378 25.8197504,31.8997986 26.0832508,31.7586376 C26.3467512,31.6174767 26.5584895,31.4245597 26.7184718,31.1798807 C26.8784542,30.9352018 26.9960866,30.6528842 27.0713724,30.3329194 C27.1466582,30.0129546 27.1843006,29.6741735 27.1843006,29.3165658 C27.1843006,28.2437428 27.0196153,27.3356211 26.6902398,26.5921735 C26.3608643,25.848726 25.923272,25.2511537 25.3774497,24.7994387 C24.8316275,24.3477238 24.2105287,24.0230585 23.5141348,23.8254332 C22.8177409,23.6278079 22.1025363,23.5289967 21.3684995,23.5289967 C20.1827477,23.5289967 19.1287619,23.7360297 18.2065105,24.1501017 C17.2842591,24.5641738 16.5078857,25.1241037 15.8773669,25.8299083 C15.2468481,26.535713 14.7622028,27.3497288 14.4234166,28.2719802 C14.0846304,29.1942316 13.9152398,30.1541115 13.9152398,31.1516487 C13.9152398,32.3938648 14.094041,33.43844 14.4516486,34.2854056 C14.8092563,35.1323711 15.284491,35.819344 15.8773669,36.3463448 C16.4702428,36.8733456 17.1383945,37.2497691 17.881842,37.4756266 C18.6252896,37.7014841 19.3734312,37.8144111 20.1262895,37.8144111 C21.1802911,37.8144111 22.2436875,37.6544311 23.3165105,37.3344664 C24.3893336,37.0145016 25.3868558,36.6286675 26.3091072,36.1769525 C26.5537861,36.0828453 26.7608191,36.0357923 26.9302122,36.0357923 C27.2689984,36.0357923 27.5419054,36.1487194 27.7489415,36.3745769 C27.9559775,36.6004343 28.0594939,36.8545202 28.0594939,37.136842 C28.0594939,37.5509141 27.7677657,37.9414535 27.1843006,38.3084719 C26.6008354,38.6754903 25.8903361,38.9954503 25.0527812,39.2683614 C24.2152264,39.5412725 23.3447471,39.757716 22.4413171,39.9176984 C21.5378872,40.0776808 20.7662191,40.1576708 20.1262895,40.1576708 C18.6958588,40.1576708 17.4442507,39.8988796 16.3714276,39.3812896 C15.2986046,38.8636995 14.4093041,38.1814319 13.7034995,37.3344664 C12.9976948,36.4875008 12.4707019,35.5323262 12.122505,34.4689139 C11.774308,33.4055016 11.6002122,32.3279893 11.6002122,31.2363448 C11.6002122,29.8623785 11.8448874,28.5637174 12.3342453,27.3403227 C12.8236032,26.116928 13.4964602,25.0488264 14.3528365,24.1359857 C15.2092128,23.223145 16.2255562,22.5032351 17.4018973,21.9762343 C18.5782383,21.4492335 19.8439623,21.1857371 21.1991072,21.1857371 C22.3283946,21.1857371 23.391791,21.3598329 24.3893282,21.7080299 C25.3868654,22.0562268 26.26205,22.5691039 27.0149083,23.2466763 C27.7677666,23.9242487 28.3653389,24.7664963 28.8076431,25.7734443 C29.2499473,26.7803922 29.4710961,27.9425997 29.4710961,29.2601017 C29.4710961,29.8435669 29.3958115,30.4364339 29.2452398,31.0387205 C29.0946681,31.6410071 28.8499929,32.1774106 28.5112066,32.647947 C28.1724204,33.1184834 27.7301228,33.5043175 27.1843006,33.8054608 C26.6384783,34.1066041 25.9703266,34.2571735 25.1798254,34.2571735 C24.9351465,34.2571735 24.6528289,34.2430577 24.3328641,34.2148255 C24.0128993,34.1865933 23.7588135,34.1160139 23.5705989,34.0030851 C23.1753483,34.492443 22.704819,34.892393 22.1589967,35.202947 C21.6131745,35.5135011 21.0579498,35.6687757 20.4933061,35.6687757 C20.0415911,35.6687757 19.5992935,35.5558487 19.1664,35.3299912 C18.7335065,35.1041337 18.3523777,34.7935844 18.0230022,34.3983338 C17.6936267,34.0030832 17.4301303,33.5419644 17.232505,33.0149636 C17.0348797,32.4879628 16.9360685,31.913917 16.9360685,31.2928089 C16.9360685,30.5587721 17.039585,29.8341569 17.246621,29.1189415 Z M20.0133613,28.780157 C19.7310395,29.1189432 19.5287119,29.5094826 19.4063724,29.9517868 C19.2840329,30.394091 19.2228641,30.8128622 19.2228641,31.2081128 C19.2228641,31.4151488 19.2463906,31.6410029 19.2934442,31.8856818 C19.3404979,32.1303608 19.4157826,32.3562149 19.5193006,32.5632509 C19.6228186,32.7702869 19.7639774,32.9443828 19.9427812,33.0855437 C20.1215851,33.2267046 20.3427339,33.297284 20.6062343,33.297284 C20.9450205,33.297284 21.2320434,33.2031782 21.4673116,33.0149636 C21.7025798,32.826749 21.8954969,32.5820738 22.0460685,32.2809304 C22.1966402,31.9797871 22.3048619,31.641006 22.370737,31.2645769 C22.4366121,30.8881477 22.4695492,30.5117242 22.4695492,30.1352951 C22.4695492,29.8717947 22.4554333,29.603593 22.4272011,29.3306818 C22.3989689,29.0577707 22.3472107,28.8130954 22.2719249,28.5966487 C22.1966391,28.3802019 22.0978279,28.2014008 21.9754884,28.0602398 C21.8531489,27.9190789 21.6978743,27.8484995 21.5096597,27.8484995 C21.2461593,27.8484995 20.968547,27.9614266 20.6768144,28.187284 C20.3850818,28.4131415 20.163933,28.6107639 20.0133613,28.780157 Z" id="@" fill="#FFFFFF" fill-rule="nonzero" transform="translate(20.535654, 30.671704) rotate(-15.000000) translate(-20.535654, -30.671704) "></path>
                <g id="Group" transform="translate(44.000000, 0.000000)" stroke="#FFFFFF" stroke-width="3">
                    <circle id="Oval" cx="5" cy="5" r="5"></circle>
                    <circle id="Oval-Copy" cx="20" cy="24" r="5"></circle>
                    <path d="M25,0.608695652 L0.595238095,27.4536118" id="Line" stroke-linecap="round"></path>
                </g>
            </g>
        </g>
    </g>
</svg>