<?xml version="1.0" encoding="UTF-8"?>
<svg width="90px" height="99px" viewBox="0 0 90 99" version="1.1" xmlns="http://www.w3.org/2000/svg" xmlns:xlink="http://www.w3.org/1999/xlink">
    <!-- Generator: Sketch 53.2 (72643) - https://sketchapp.com -->
    <title>seller-emotion</title>
    <desc>Created with Sketch.</desc>
    <g id="Page-18" stroke="none" stroke-width="1" fill="none" fill-rule="evenodd">
        <g id="Artboard-2" transform="translate(-483.000000, -194.000000)" fill="#FFFFFF">
            <g id="seller-emotion" transform="translate(483.000000, 193.120604)">
                <path d="M51.1460639,29.5598047 L50.0784076,13.5783252 C49.8782211,10.4643122 49.7781293,8.22892931 49.7781293,6.87210938 C49.7781293,5.02594455 50.2619062,3.58573515 51.2294745,2.55143799 C52.1970428,1.51714082 53.4704326,1 55.049682,1 C56.9625757,1 58.2415261,1.66171783 58.8865717,2.98517334 C59.5316172,4.30862885 59.8541352,6.21593318 59.8541352,8.70714355 C59.8541352,10.1751782 59.776286,11.6654335 59.6205854,13.1779541 L58.1859223,29.6265332 C58.0302216,31.5839128 57.6965824,33.0852894 57.1849945,34.130708 C56.6734067,35.1761266 55.8281873,35.6988281 54.6493109,35.6988281 C53.4481917,35.6988281 52.6140936,35.1928086 52.1469916,34.1807544 C51.6798897,33.1687002 51.3462504,31.628399 51.1460639,29.5598047 Z M54.8494965,51.5134863 C53.4926766,51.5134863 52.3082572,51.0741947 51.296203,50.1955981 C50.2841488,49.3170016 49.7781293,48.0880971 49.7781293,46.5088477 C49.7781293,45.1297848 50.2619062,43.9564868 51.2294745,42.9889185 C52.1970428,42.0213501 53.3814621,41.5375732 54.782768,41.5375732 C56.1840738,41.5375732 57.3796144,42.0213501 58.3694257,42.9889185 C59.359237,43.9564868 59.8541352,45.1297848 59.8541352,46.5088477 C59.8541352,48.0658541 59.3536763,49.289198 58.3527436,50.178916 C57.3518108,51.068634 56.1840735,51.5134863 54.8494965,51.5134863 Z" id="!" fill-rule="nonzero" transform="translate(54.816132, 26.256743) rotate(-345.000000) translate(-54.816132, -26.256743) "></path>
                <path d="M61.3141979,68.2578242 L60.8857767,61.8448944 C60.8054473,60.5953263 60.7652832,59.6983284 60.7652832,59.1538738 C60.7652832,58.4130584 60.9594096,57.8351418 61.3476683,57.4201067 C61.7359269,57.0050716 62.2469033,56.7975572 62.8806129,56.7975572 C63.6482047,56.7975572 64.1614125,57.0630864 64.4202516,57.5941528 C64.6790907,58.1252193 64.8085083,58.8905682 64.8085083,59.8902227 C64.8085083,60.4793048 64.7772695,61.0773034 64.7147911,61.6842365 L64.1391001,68.2846006 C64.0766217,69.0700434 63.9427415,69.6725046 63.7374553,70.0920025 C63.5321691,70.5115004 63.1930057,70.7212461 62.7199549,70.7212461 C62.2379787,70.7212461 61.903278,70.5181944 61.7158427,70.1120847 C61.5284075,69.7059751 61.3945272,69.0878945 61.3141979,68.2578242 Z M62.8002839,77.0672352 C62.2558292,77.0672352 61.7805542,76.8909594 61.3744446,76.5384027 C60.968335,76.185846 60.7652832,75.6927203 60.7652832,75.0590108 C60.7652832,74.5056306 60.9594096,74.0348183 61.3476683,73.6465596 C61.7359269,73.258301 62.2112019,73.0641746 62.7735076,73.0641746 C63.3358132,73.0641746 63.8155509,73.258301 64.212735,73.6465596 C64.6099192,74.0348183 64.8085083,74.5056306 64.8085083,75.0590108 C64.8085083,75.6837948 64.6076878,76.1746892 64.206041,76.5317087 C63.8043941,76.8887281 63.3358131,77.0672352 62.8002839,77.0672352 Z" id="!" fill-rule="nonzero" transform="translate(62.786896, 66.932396) rotate(-315.000000) translate(-62.786896, -66.932396) "></path>
                <path d="M65,94.9305772 C65,96.0305772 64.1,96.9305772 63,96.9305772 C61.9,96.9305772 61,96.0305772 61,94.9305772 C61,93.8305772 61.9,92.9305772 63,92.9305772 C64.1,92.9305772 65,93.8305772 65,94.9305772 Z" id="Fill-196"></path>
                <path d="M81,37.9305772 C81,39.0305772 80.1,39.9305772 79,39.9305772 C77.9,39.9305772 77,39.0305772 77,37.9305772 C77,36.8305772 77.9,35.9305772 79,35.9305772 C80.1,35.9305772 81,36.8305772 81,37.9305772 Z" id="Fill-197"></path>
                <path d="M4,61.9305772 C4,63.0305772 3.1,63.9305772 2,63.9305772 C0.9,63.9305772 0,63.0305772 0,61.9305772 C0,60.8305772 0.9,59.9305772 2,59.9305772 C3.1,59.9305772 4,60.8305772 4,61.9305772 Z" id="Fill-198"></path>
                <path d="M90,96.9305772 C90,98.0305772 89.1,98.9305772 88,98.9305772 C86.9,98.9305772 86,98.0305772 86,96.9305772 C86,95.8305772 86.9,94.9305772 88,94.9305772 C89.1,94.9305772 90,95.8305772 90,96.9305772 Z" id="Fill-199"></path>
                <path d="M43,63.9305772 C43,65.0305772 42.1,65.9305772 41,65.9305772 C39.9,65.9305772 39,65.0305772 39,63.9305772 C39,62.8305772 39.9,61.9305772 41,61.9305772 C42.1,61.9305772 43,62.8305772 43,63.9305772 Z" id="Fill-200"></path>
                <path d="M32,22.9305772 C32,24.0305772 31.1,24.9305772 30,24.9305772 C28.9,24.9305772 28,24.0305772 28,22.9305772 C28,21.8305772 28.9,20.9305772 30,20.9305772 C31.1,20.9305772 32,21.8305772 32,22.9305772 Z" id="Fill-201"></path>
                <path d="M19.3296118,42.6060819 L18.5878899,32.0128127 C18.4488164,29.9486998 18.3792807,28.4669839 18.3792807,27.5676204 C18.3792807,26.3438963 18.71537,25.3892584 19.3875588,24.7036781 C20.0597476,24.0180977 20.9443966,23.6753127 22.0415323,23.6753127 C23.3704573,23.6753127 24.2589694,24.1139301 24.7070952,24.9911781 C25.1552211,25.8684261 25.3792807,27.1326762 25.3792807,28.7839666 C25.3792807,29.7570483 25.3251973,30.744859 25.217029,31.7474281 L24.2203403,42.6503127 C24.112172,43.9477551 23.8803862,44.9429374 23.524976,45.6358896 C23.1695659,46.3288418 22.5823753,46.6753127 21.7633866,46.6753127 C20.9289454,46.6753127 20.349481,46.3398994 20.024976,45.6690627 C19.7004711,44.998226 19.4686853,43.9772426 19.3296118,42.6060819 Z M22.0733458,57.3560728 C21.1307362,57.3560728 20.3078968,57.0478262 19.6048027,56.4313236 C18.9017087,55.8148211 18.550167,54.9525109 18.550167,53.8443671 C18.550167,52.8766923 18.8862563,52.0534006 19.5584451,51.3744675 C20.2306339,50.6955343 21.0534734,50.3560728 22.0269882,50.3560728 C23.000503,50.3560728 23.8310686,50.6955343 24.51871,51.3744675 C25.2063514,52.0534006 25.550167,52.8766923 25.550167,53.8443671 C25.550167,54.9369032 25.2024883,55.7953116 24.5071206,56.419618 C23.8117529,57.0439243 23.0005027,57.3560728 22.0733458,57.3560728 Z" id="!" fill-rule="nonzero" transform="translate(21.964724, 40.515693) rotate(-15.000000) translate(-21.964724, -40.515693) "></path>
            </g>
        </g>
    </g>
</svg>