<?xml version="1.0" encoding="UTF-8"?>
<svg width="183px" height="238px" viewBox="0 0 183 238" version="1.1" xmlns="http://www.w3.org/2000/svg" xmlns:xlink="http://www.w3.org/1999/xlink">
    <!-- Generator: Sketch 53.2 (72643) - https://sketchapp.com -->
    <title>seller-active</title>
    <desc>Created with Sketch.</desc>
    <defs>
        <path d="M92.8006584,247.771928 C154.602605,243.142229 188.645513,239.644047 194.929381,237.27738 C204.355185,233.72738 205.381939,73.6938621 187.816299,29.5773799 C170.250658,-14.5391023 90.895242,-2.19742147 80.6506584,20.7711019 C73.820936,36.0834508 71.1042694,66.2887801 72.5006584,111.38709 L59.5409125,126.17738 L49.6006584,125.07738 C36.4006584,95.844169 25.0506584,82.9108356 15.5506584,86.2773799 C1.3006584,91.3271962 -7.92952328,140.250638 9.5506584,161.464009 C21.2041129,175.606256 31.7707795,189.872638 41.2506584,204.263153 L77.9506584,199.666451 L92.8006584,247.771928 Z" id="path-1"></path>
    </defs>
    <g id="Page-18" stroke="none" stroke-width="1" fill="none" fill-rule="evenodd">
        <g id="Artboard-4" transform="translate(-373.000000, -267.000000)">
            <g id="seller-active" transform="translate(362.349342, 257.373801)">
                <mask id="mask-2" fill="white">
                    <use xlink:href="#path-1"></use>
                </mask>
                <g id="Mask"></g>
                <g id="Group" mask="url(#mask-2)">
                    <g transform="translate(11.451277, 10.656353)">
                        <path d="M12.3993816,129.921026 C12.3993816,129.921026 16.7993816,174.221026 37.9993816,177.421026 C52.4993816,179.621026 69.5993816,168.421026 84.4993816,154.921026 C98.5993816,142.221026 111.799382,124.321026 91.5993816,123.921026 C76.8993816,123.521026 53.5993816,152.421026 43.4993816,152.421026 C37.4993816,152.421026 35.4993816,141.421026 26.9993816,123.921026 L12.3993816,129.921026 Z" id="Fill-471" stroke="none" fill="#18BBEB" fill-rule="evenodd"></path>
                        <path d="M13.0993816,131.821026 C13.0993816,131.821026 17.1993816,129.021026 21.1993816,128.021026 C23.3993816,148.221026 35.1993816,178.021026 63.1993816,171.021026 C53.1993816,175.021026 49.1993816,178.021026 38.1993816,178.021026 C15.5993816,178.021026 13.0993816,131.821026 13.0993816,131.821026 Z" id="Fill-472" stroke="none" fill="#0A98CD" fill-rule="evenodd"></path>
                        <path d="M9.9993816,123.821026 C9.9993816,123.821026 8.4993816,128.221026 12.1993816,130.821026 C15.7993816,130.721026 25.3993816,126.421026 27.4993816,124.421026 C30.0993816,121.921026 27.9993816,118.121026 25.4993816,117.321026 C20.8993816,121.821026 11.6993816,122.721026 9.9993816,123.821026 Z" id="Fill-473" stroke="none" fill="#18BBEB" fill-rule="evenodd"></path>
                        <path d="M10.1993816,124.021026 C10.1993816,124.021026 15.1993816,123.021026 18.1993816,121.021026 C19.1993816,125.021026 18.1993816,127.021026 21.1993816,128.021026 C18.1993816,130.021026 18.1993816,129.021026 15.1993816,130.021026 C8.2993816,132.321026 10.1993816,124.021026 10.1993816,124.021026 Z" id="Fill-474" stroke="none" fill="#0A98CD" fill-rule="evenodd"></path>
                        <path d="M12.5993816,131.021026 C13.3993816,137.921026 18.7993816,174.521026 37.9993816,177.421026 C52.4993816,179.621026 69.5993816,168.421026 84.4993816,154.921026 C98.5993816,142.221026 111.799382,124.321026 91.5993816,123.921026 C76.8993816,123.521026 53.5993816,152.421026 43.4993816,152.421026 C37.5993816,152.421026 35.5993816,141.821026 27.3993816,124.921026" id="Stroke-475" stroke="#203568" stroke-width="1.98099" fill="none" stroke-linecap="round"></path>
                        <path d="M155.799382,255.421026 L172.999382,255.921026 C172.999382,255.921026 186.899382,175.221026 177.099382,136.621026 C174.599382,126.721026 145.699382,121.721026 132.199382,122.121026 C125.699382,124.821026 112.299382,127.921026 112.299382,127.921026 L105.899382,123.521026 C105.899382,123.521026 95.4993816,116.521026 89.9993816,131.121026 C83.9993816,146.921026 102.099382,208.621026 92.5993816,275.921026 C89.3993816,298.521026 109.899382,276.821026 109.899382,276.821026 L109.299382,271.121026 L155.799382,255.421026 Z" id="Fill-476" stroke="none" fill="#18BBEB" fill-rule="evenodd"></path>
                        <path d="M155.699382,255.521026 L172.999382,255.921026 C172.999382,255.921026 186.899382,175.221026 177.099382,136.621026 C174.499382,126.821026 145.599382,121.721026 132.199382,122.121026 C125.699382,124.821026 112.299382,127.921026 112.299382,127.921026 L105.799382,123.521026" id="Stroke-477" stroke="#203568" stroke-width="1.98099" fill="none" stroke-linecap="round"></path>
                        <path d="M159.099382,164.821026 C159.099382,164.821026 168.699382,235.821026 164.799382,240.921026 C160.899382,246.021026 160.399382,239.021026 156.799382,239.721026 C159.799382,207.921026 159.099382,164.821026 159.099382,164.821026 Z" id="Fill-478" stroke="none" fill="#0A98CD" fill-rule="evenodd"></path>
                        <path d="M158.699382,164.421026 C158.699382,164.421026 163.299382,238.021026 150.299382,255.421026" id="Stroke-479" stroke="#203568" stroke-width="1.98099" fill="none" stroke-linecap="round"></path>
                        <path d="M87.3993816,123.821026 C87.1993816,140.321026 86.1993816,146.821026 79.6993816,162.821026 C72.9993816,179.421026 78.5993816,190.221026 82.1993816,197.621026 C85.7993816,205.021026 87.0993816,264.021026 87.0993816,269.421026 C87.0993816,274.821026 146.299382,272.321026 152.599382,256.221026 C158.899382,240.221026 159.199382,198.821026 159.199382,198.821026 C159.199382,198.821026 145.299382,190.421026 143.299382,170.121026 C142.099382,157.621026 143.899382,132.521026 148.099382,124.021026 C145.199382,122.821026 139.199382,122.221026 139.199382,122.221026 C139.199382,122.221026 128.599382,155.621026 108.499382,155.321026 C85.3993816,155.021026 98.7993816,121.821026 98.7993816,121.821026 C98.7993816,121.821026 91.5993816,120.221026 87.3993816,123.821026 Z" id="Fill-480" stroke="none" fill="#7236B7" fill-rule="evenodd"></path>
                        <path d="M77.9993816,66.2210264 C77.9993816,66.2210264 76.9993816,99.0210264 71.0993816,108.921026 C73.6993816,110.321026 77.0993816,109.621026 79.1993816,108.521026 C79.5993816,109.221026 79.5993816,110.521026 79.2993816,111.621026 C79.0993816,113.021026 79.9993816,114.521026 81.4993816,114.721026 L89.5993816,116.321026 L92.4993816,111.421026 L94.1993816,112.921026 L104.299382,112.721026 C104.299382,112.721026 104.899382,98.2210264 104.999382,94.5210264 C104.299382,93.7210264 86.1993816,96.3210264 77.9993816,66.2210264 Z" id="Fill-481" stroke="none" fill="#E5A355" fill-rule="evenodd"></path>
                        <path d="M104.699382,93.3210264 C104.699382,93.3210264 104.999382,111.821026 103.499382,122.421026 C103.399382,124.221026 103.799382,123.921026 109.599382,127.921026 C116.099382,128.321026 128.099382,123.821026 129.699382,120.721026 C132.799382,114.521026 132.199382,92.2210264 132.199382,92.2210264 C132.199382,92.2210264 108.699382,94.9210264 104.699382,93.3210264 Z" id="Fill-482" stroke="none" fill="#EDC9AD" fill-rule="evenodd"></path>
                        <path d="M104.699382,93.3210264 C104.699382,93.3210264 104.999382,111.821026 103.499382,122.421026 C103.399382,124.221026 103.799382,123.921026 109.599382,127.921026 C116.099382,128.321026 128.099382,123.821026 129.699382,120.721026 C132.799382,114.521026 132.199382,92.2210264 132.199382,92.2210264 C132.199382,92.2210264 108.699382,94.9210264 104.699382,93.3210264 Z" id="Stroke-483" stroke="#203568" stroke-width="1.98099" fill="none"></path>
                        <path d="M87.6993816,124.021026 C87.3993816,140.521026 86.4993816,147.021026 79.8993816,163.021026 C73.1993816,179.621026 78.7993816,190.421026 82.3993816,197.821026 C85.9993816,205.221026 87.3993816,264.321026 87.3993816,269.621026 C87.3993816,275.021026 146.599382,272.621026 152.799382,256.521026 C159.099382,240.421026 159.399382,199.121026 159.399382,199.121026 C159.399382,199.121026 145.499382,190.721026 143.599382,170.321026 C142.399382,157.821026 144.099382,132.721026 148.299382,124.321026 C145.399382,123.121026 139.399382,122.421026 139.399382,122.421026 C139.399382,122.421026 128.799382,155.921026 108.699382,155.621026 C85.5993816,155.221026 98.9993816,122.121026 98.9993816,122.121026 C98.9993816,122.121026 91.7993816,120.421026 87.6993816,124.021026 Z" id="Stroke-484" stroke="#203568" stroke-width="1.98099" fill="none" stroke-linecap="round"></path>
                        <path d="M103.699382,118.321026 C103.699382,118.321026 98.6993816,121.021026 98.4993816,126.721026 C98.3993816,131.521026 104.199382,132.521026 104.199382,132.521026 C104.199382,132.521026 106.599382,129.221026 108.499382,127.521026 C106.199382,126.221026 103.399382,123.821026 103.699382,118.321026 Z" id="Fill-485" stroke="none" fill="#1BB2D9" fill-rule="evenodd"></path>
                        <path d="M103.699382,118.321026 C103.699382,118.321026 98.6993816,121.021026 98.4993816,126.721026 C98.3993816,131.521026 104.199382,132.521026 104.199382,132.521026 C104.199382,132.521026 106.599382,129.221026 108.499382,127.521026 C106.199382,126.221026 103.399382,123.821026 103.699382,118.321026 Z" id="Stroke-486" stroke="#203568" stroke-width="1.98099" fill="none" stroke-linecap="round"></path>
                        <path d="M116.499382,127.421026 C116.499382,127.421026 117.899382,130.921026 117.699382,134.321026 C125.799382,134.621026 135.099382,126.221026 136.899382,121.421026 C138.399382,117.221026 134.099382,117.421026 132.199382,118.121026 C131.499382,119.521026 126.099382,123.821026 116.499382,127.421026 Z" id="Fill-487" stroke="none" fill="#1BB2D9" fill-rule="evenodd"></path>
                        <path d="M116.499382,127.421026 C116.499382,127.421026 117.899382,130.921026 117.699382,134.321026 C125.799382,134.621026 135.099382,126.221026 136.899382,121.421026 C138.399382,117.221026 134.099382,117.421026 132.199382,118.121026 C131.499382,119.521026 126.099382,123.821026 116.499382,127.421026 Z" id="Stroke-488" stroke="#203568" stroke-width="1.98099" fill="none" stroke-linecap="round"></path>
                        <path d="M77.8993816,65.0210264 C77.8993816,65.0210264 76.4993816,95.1210264 73.9993816,102.521026 C71.4993816,109.921026 71.9993816,109.121026 71.9993816,109.121026 C71.9993816,109.121026 77.8993816,109.421026 78.3993816,108.821026 C78.8993816,108.221026 81.9993816,77.2210264 81.9993816,77.2210264 C81.9993816,77.2210264 77.7993816,67.4210264 77.8993816,65.0210264 Z" id="Fill-489" stroke="none" fill="#F7C78D" fill-rule="evenodd"></path>
                        <path d="M112.099382,127.921026 C112.099382,127.921026 107.999382,146.721026 108.699382,155.621026" id="Stroke-490" stroke="#203568" stroke-width="1.98099" fill="none" stroke-linecap="round"></path>
                        <path d="M78.3993816,43.8210264 C78.3993816,43.8210264 68.6993816,103.421026 122.299382,93.9210264 C175.799382,84.4210264 145.299382,20.6210264 132.899382,18.1210264 C120.399382,15.6210264 80.0993816,13.3210264 78.3993816,43.8210264 Z" id="Fill-491" stroke="none" fill="#EDC9AD" fill-rule="evenodd"></path>
                        <path d="M78.3993816,43.8210264 C78.3993816,43.8210264 68.6993816,103.421026 122.299382,93.9210264 C175.799382,84.4210264 145.299382,20.6210264 132.899382,18.1210264 C120.399382,15.6210264 80.0993816,13.3210264 78.3993816,43.8210264 Z" id="Stroke-492" stroke="#203568" stroke-width="1.98099" fill="none"></path>
                        <path d="M105.699382,95.5210264 C105.699382,95.5210264 104.699382,110.321026 123.199382,110.421026 C141.599382,110.621026 136.099382,91.2210264 125.999382,93.8210264 C114.099382,96.9210264 105.699382,95.5210264 105.699382,95.5210264 Z" id="Fill-493" stroke="none" fill="#B28A6E" fill-rule="evenodd"></path>
                        <path d="M79.1993816,44.7210264 C83.4993816,43.4210264 90.9993816,40.9210264 109.199382,40.7210264 C121.799382,40.5210264 125.399382,30.9210264 125.999382,26.5210264 C119.999382,40.5210264 79.9993816,39.5210264 79.1993816,44.7210264 Z" id="Fill-494" stroke="none" fill="#B28A6E" fill-rule="evenodd"></path>
                        <path d="M76.9993816,52.7210264 C76.9993816,52.7210264 77.1993816,48.2210264 77.3993816,44.6210264 C88.6993816,36.3210264 118.899382,41.6210264 126.599382,25.4210264 C126.699382,30.3210264 125.799382,46.5210264 136.399382,51.6210264 C131.099382,80.0210264 122.899382,97.1210264 118.599382,102.521026 C121.699382,102.921026 124.399382,103.021026 124.399382,103.021026 L123.499382,116.721026 L131.099382,117.021026 L129.699382,121.321026 L139.499382,122.221026 C139.499382,122.221026 139.099382,124.821026 140.299382,126.021026 C147.299382,127.321026 153.699382,122.121026 153.699382,122.121026 C153.699382,122.121026 149.499382,106.821026 153.499382,81.3210264 C155.199382,70.6210264 172.599382,16.6210264 140.499382,14.7210264 C138.899382,6.82102637 124.399382,-2.77897363 101.499382,1.12102637 C73.2993816,5.72102637 56.0993816,40.7210264 76.9993816,52.7210264 Z" id="Fill-495" stroke="none" fill="#E5A355" fill-rule="evenodd"></path>
                        <path d="M135.799382,51.2210264 C135.799382,51.2210264 128.799382,87.7210264 121.599382,97.5210264 C117.099382,103.821026 119.699382,102.521026 119.699382,102.521026 C119.699382,102.521026 124.599382,104.221026 124.899382,103.521026 C132.699382,84.7210264 140.399382,50.0210264 135.799382,51.2210264 Z" id="Fill-496" stroke="none" fill="#F7C78D" fill-rule="evenodd"></path>
                        <path d="M127.099382,23.6210264 C127.099382,23.6210264 124.599382,42.5210264 135.899382,51.0210264 C126.699382,38.5210264 133.199382,22.7210264 127.099382,23.6210264 Z" id="Fill-497" stroke="none" fill="#F7C78D" fill-rule="evenodd"></path>
                        <path d="M72.2993816,48.3210264 C72.2993816,48.3210264 71.7993816,41.1210264 76.8993816,37.7210264 C87.4993816,30.7210264 105.999382,34.4210264 116.499382,27.4210264 C125.299382,21.5210264 134.399382,6.72102637 124.299382,2.42102637 C121.599382,1.22102637 100.099382,-5.77897363 80.4993816,11.4210264 C59.1993816,30.1210264 72.2993816,48.3210264 72.2993816,48.3210264 Z" id="Fill-498" stroke="none" fill="#F7C78D" fill-rule="evenodd"></path>
                        <path d="M91.7993816,76.9210264 C91.7993816,76.9210264 94.4993816,80.0210264 98.7993816,80.0210264 C104.799382,80.0210264 106.099382,75.6210264 106.099382,75.6210264" id="Stroke-499" stroke="#203568" stroke-width="1.98099" fill="none" stroke-linecap="round"></path>
                        <path d="M104.299382,112.821026 L94.9993816,113.021026 C94.4993816,113.021026 94.0993816,112.721026 93.7993816,112.321026 L93.2993816,111.521026 C92.9993816,110.921026 92.1993816,111.021026 91.8993816,111.521026 L89.9993816,115.421026 C89.6993816,115.921026 89.0993816,116.221026 88.4993816,116.121026 L81.3993816,114.521026 C80.0993816,114.221026 79.2993816,113.021026 79.3993816,111.721026 C79.4993816,110.621026 79.3993816,109.721026 79.2993816,109.121026 C79.2993816,108.821026 78.9993816,108.721026 78.6993816,108.821026 C77.6993816,109.221026 75.0993816,110.221026 72.5993816,109.621026 C71.7993816,109.421026 71.3993816,108.521026 71.7993816,107.721026 C79.8993816,91.2210264 76.9993816,52.7210264 76.9993816,52.7210264 C76.9993816,52.7210264 67.3993816,48.6210264 68.1993816,33.3210264 C69.0993816,18.1210264 87.1993816,-0.578973626 112.299382,0.821026374 C137.399382,2.22102637 139.599382,10.4210264 140.199382,15.0210264 C146.499382,15.3210264 154.499382,17.6210264 158.299382,28.6210264 C162.199382,39.6210264 154.799382,74.2210264 153.499382,82.2210264 C152.299382,89.4210264 152.299382,112.621026 153.499382,119.921026 C153.699382,121.321026 153.099382,122.721026 151.999382,123.421026 C148.599382,125.621026 144.199382,125.821026 140.999382,125.921026 C139.699382,126.021026 138.999382,124.521026 139.799382,123.521026 C139.999382,123.221026 139.899382,122.821026 139.499382,122.821026 L131.199382,122.321026 C130.499382,122.221026 129.899382,121.521026 130.199382,120.721026 L131.199382,118.421026 C131.399382,117.721026 130.999382,116.921026 130.199382,116.821026 L124.799382,116.521026 C124.199382,116.521026 123.699382,116.021026 123.699382,115.321026 L124.399382,104.221026 C124.399382,103.521026 123.899382,103.021026 123.299382,103.021026 L120.399382,102.821026 C119.499382,102.721026 118.999382,101.721026 119.499382,101.021026 C127.499382,90.1210264 134.499382,59.9210264 136.099382,53.0210264 C136.199382,52.2210264 135.899382,51.3210264 135.199382,50.8210264 C123.599382,41.7210264 127.799382,24.1210264 127.099382,24.1210264 C126.499382,24.1210264 125.599382,36.0210264 99.3993816,38.7210264 C76.7993816,41.0210264 76.4993816,46.6210264 76.4993816,46.6210264" id="Stroke-500" stroke="#203568" stroke-width="1.98099" fill="none" stroke-linecap="round"></path>
                        <path d="M150.199382,61.3210264 C149.899382,65.2210264 146.599382,68.3210264 143.899382,68.2210264 C141.199382,68.0210264 140.099382,64.7210264 140.299382,60.7210264 C140.499382,56.8210264 142.899382,53.7210264 145.599382,53.8210264 C148.399382,54.0210264 150.399382,57.3210264 150.199382,61.3210264 Z" id="Fill-501" stroke="none" fill="#EDC9AD" fill-rule="evenodd"></path>
                        <path d="M150.199382,61.3210264 C149.899382,65.2210264 146.599382,68.3210264 143.899382,68.2210264 C141.199382,68.0210264 140.099382,64.7210264 140.299382,60.7210264 C140.499382,56.8210264 142.899382,53.7210264 145.599382,53.8210264 C148.399382,54.0210264 150.399382,57.3210264 150.199382,61.3210264 Z" id="Stroke-502" stroke="#203568" stroke-width="1.98099" fill="none"></path>
                        <path d="M140.299382,60.7210264 C140.299382,60.7210264 138.899382,68.8210264 140.499382,73.3210264" id="Stroke-503" stroke="#203568" stroke-width="1.98099" fill="none" stroke-linecap="round"></path>
                        <path d="M145.899382,58.4210264 C145.899382,58.4210264 144.399382,59.0210264 144.399382,61.0210264" id="Stroke-504" stroke="#203568" stroke-width="1.98099" fill="none" stroke-linecap="round"></path>
                        <path d="M118.699382,142.621026 C118.699382,144.021026 117.599382,145.221026 116.199382,145.221026 C114.799382,145.221026 113.599382,144.021026 113.599382,142.621026 C113.599382,141.121026 114.799382,139.921026 116.199382,139.921026 C117.599382,139.921026 118.699382,141.121026 118.699382,142.621026 Z" id="Stroke-505" stroke="#203568" stroke-width="1.98099" fill="none" stroke-linecap="round"></path>
                        <path d="M114.599382,191.321026 L136.899382,191.321026 C138.099382,191.321026 139.099382,190.321026 139.099382,189.121026 L139.099382,181.921026 C139.099382,180.721026 138.099382,179.721026 136.799382,179.721026 L114.599382,180.421026 C113.399382,180.521026 112.499382,181.521026 112.499382,182.721026 L112.499382,189.121026 C112.499382,190.321026 113.399382,191.321026 114.599382,191.321026 Z" id="Fill-506" stroke="none" fill="#FFFFFF" fill-rule="evenodd"></path>
                        <polygon id="Fill-507" stroke="none" fill="#ADE6ED" fill-rule="evenodd" points="120.899382 190.421026 123.199382 190.421026 118.099382 181.221026 115.299382 181.321026"></polygon>
                        <polygon id="Fill-508" stroke="none" fill="#ADE6ED" fill-rule="evenodd" points="126.399382 190.521026 131.599382 190.321026 124.899382 181.021026 120.399382 181.321026"></polygon>
                        <path d="M114.599382,191.321026 L136.899382,191.321026 C138.099382,191.321026 139.099382,190.321026 139.099382,189.121026 L139.099382,181.921026 C139.099382,180.721026 138.099382,179.721026 136.799382,179.721026 L114.599382,180.421026 C113.399382,180.521026 112.499382,181.521026 112.499382,182.721026 L112.499382,189.121026 C112.499382,190.321026 113.399382,191.321026 114.599382,191.321026 Z" id="Stroke-509" stroke="#203568" stroke-width="1.98099" fill="none" stroke-linecap="round"></path>
                        <path d="M85.7993816,48.3210264 C85.7993816,48.3210264 83.4993816,49.7210264 82.5993816,51.4210264" id="Stroke-510" stroke="#203568" stroke-width="1.98099" fill="none" stroke-linecap="round"></path>
                        <path d="M112.699382,49.6210264 C110.099382,47.7210264 107.099382,46.8210264 107.099382,46.8210264" id="Stroke-511" stroke="#203568" stroke-width="1.98099" fill="none" stroke-linecap="round"></path>
                        <path d="M102.999382,55.3210264 C102.999382,55.3210264 105.599382,59.7210264 110.299382,56.3210264" id="Stroke-512" stroke="#203568" stroke-width="1.98099" fill="none" stroke-linecap="round"></path>
                        <path d="M83.4993816,57.2210264 C83.4993816,57.2210264 87.0993816,60.3210264 89.5993816,56.0210264" id="Stroke-513" stroke="#203568" stroke-width="1.98099" fill="none" stroke-linecap="round"></path>
                        <path d="M9.9993816,123.821026 C9.9993816,123.821026 8.4993816,128.221026 12.1993816,130.821026 C15.7993816,130.721026 25.3993816,126.421026 27.4993816,124.421026 C30.0993816,121.921026 27.9993816,118.121026 25.4993816,117.321026 C20.8993816,121.821026 11.6993816,122.721026 9.9993816,123.821026 Z" id="Stroke-514" stroke="#203568" stroke-width="1.98099" fill="none" stroke-linecap="round"></path>
                        <path d="M1.1993816,104.521026 C2.0993816,102.321026 2.1993816,103.321026 4.4993816,102.621026 C4.2993816,100.921026 7.1993816,98.0210264 9.5993816,97.8210264 C10.3993816,95.3210264 7.1993816,85.0210264 10.3993816,83.3210264 C14.4993816,81.0210264 17.5993816,101.421026 17.8993816,101.921026 C18.0993816,102.421026 27.0993816,97.6210264 27.9993816,106.621026 C28.8993816,115.621026 20.0993816,123.021026 10.8993816,123.921026 C10.8993816,123.921026 -4.3006184,117.821026 1.1993816,104.521026 Z" id="Fill-515" stroke="none" fill="#EDC9AD" fill-rule="evenodd"></path>
                        <path d="M13.9993816,107.721026 C13.1993816,108.921026 11.0993816,109.021026 11.0993816,109.021026" id="Stroke-516" stroke="#203568" stroke-width="1.98099" fill="none" stroke-linecap="round"></path>
                        <path d="M4.0993816,102.221026 C4.0993816,102.221026 6.5993816,97.0210264 9.8993816,98.5210264 C11.8993816,99.4210264 13.7993816,101.521026 14.5993816,103.521026" id="Stroke-517" stroke="#203568" stroke-width="1.98099" fill="none" stroke-linecap="round"></path>
                        <path d="M10.4993816,98.7210264 C10.4993816,98.7210264 7.3993816,85.5210264 9.7993816,83.5210264 C15.2993816,79.2210264 15.9993816,98.0210264 18.8993816,101.921026" id="Stroke-518" stroke="#203568" stroke-width="1.98099" fill="none" stroke-linecap="round"></path>
                        <path d="M5.2993816,111.521026 C7.4993816,111.921026 9.7993816,111.021026 10.5993816,108.921026 C11.4993816,106.921026 1.3993816,98.1210264 0.3993816,107.121026 C-1.0006184,118.821026 9.9993816,123.921026 9.9993816,123.921026 C9.9993816,123.921026 24.5993816,122.421026 27.0993816,113.221026 C29.7993816,103.521026 25.5993816,100.621026 19.4993816,102.021026 C8.3993816,104.721026 14.2993816,109.321026 20.2993816,108.021026" id="Stroke-519" stroke="#203568" stroke-width="1.98099" fill="none" stroke-linecap="round"></path>
                    </g>
                </g>
            </g>
        </g>
    </g>
</svg>