<?xml version="1.0" encoding="UTF-8"?>
<svg width="510px" height="359px" viewBox="0 0 510 359" version="1.1" xmlns="http://www.w3.org/2000/svg" xmlns:xlink="http://www.w3.org/1999/xlink">
    <!-- Generator: Sketch 53.2 (72643) - https://sketchapp.com -->
    <title>start-background</title>
    <desc>Created with Sketch.</desc>
    <g id="Page-18" stroke="none" stroke-width="1" fill="none" fill-rule="evenodd">
        <g id="Artboard-1" transform="translate(-77.000000, -155.000000)">
            <g id="start-background" transform="translate(77.200000, 156.008752)">
                <path d="M0.466269607,294.71976 C87.7971136,297.608976 265.478545,298.210814 505.6,272.24243" id="Stroke-4" stroke="#E0E8EB" stroke-width="1.98099"></path>
                <path d="M2.22978629,254.388702 C89.5159678,255.824405 265.002608,253.548583 505.6,225.04243" id="Stroke-5" stroke="#E0E8EB" stroke-width="1.98099"></path>
                <path d="M5.69624745,214.458293 C94.0186928,214.880991 267.858576,209.791462 505.6,174.74243" id="Stroke-6" stroke="#E0E8EB" stroke-width="1.98099"></path>
                <path d="M58.1136715,162.264422 C225.199811,158.142561 359.2,142.24243 505.6,116.24243" id="Stroke-7" stroke="#E0E8EB" stroke-width="1.98099"></path>
                <path d="M119.320944,122.734355 C278.7,108.083228 393.3,95.0424296 501.4,66.5424296" id="Stroke-8" stroke="#E0E8EB" stroke-width="1.98099"></path>
                <path d="M146.3,79.1424296 C239.3,72.2424296 358.8,49.5424296 497.4,4.24242958" id="Stroke-9" stroke="#E0E8EB" stroke-width="1.98099"></path>
                <path d="M297.2,243.04243 C297.2,243.04243 286.8,244.14243 275.7,244.84243 C275.9,231.94243 273.1,215.74243 273.1,215.74243 C273.1,215.74243 291.1,212.14243 296.7,212.84243 C298.1,222.64243 297.2,243.04243 297.2,243.04243 Z" id="Fill-10" fill="#97B9C6"></path>
                <path d="M336.7,194.64243 L315.8,196.54243 C315.8,196.54243 316,175.54243 314.7,168.74243 C321.4,166.14243 327.2,164.94243 336.6,165.04243 C338.9,170.14243 336.7,194.64243 336.7,194.64243 Z" id="Fill-11" fill="#97B9C6"></path>
                <path d="M279.6,149.34243 C280.1,140.14243 278.7,122.84243 278.7,122.84243 C278.7,122.84243 287.3,119.24243 298.5,119.14243 C299.5,125.54243 298.4,147.24243 298.4,147.24243" id="Stroke-12" stroke="#E0E8EB" stroke-width="1.98099"></path>
                <path d="M367.9,40.8424296 C368.6,28.7424296 363.1,7.74242958 363.1,7.74242958 C363.1,7.74242958 374.4,0.442429578 389.2,0.242429578 C390.4,8.64242958 391.8,35.4424296 391.8,35.4424296" id="Stroke-13" stroke="#E0E8EB" stroke-width="1.98099"></path>
                <path d="M153.7,252.44243 C154.1,244.94243 153,230.64243 153,230.64243 C153,230.64243 160.9,228.64243 170.2,228.54243 C170.9,233.74243 171,251.64243 171,251.64243" id="Stroke-14" stroke="#E0E8EB" stroke-width="1.98099"></path>
                <path d="M285.5,289.64243 C285.9,283.44243 284.9,271.64243 284.9,271.64243 C284.9,271.64243 291.5,270.04243 299.2,269.94243 C299.8,274.24243 299.8,289.04243 299.8,289.04243" id="Stroke-15" stroke="#E0E8EB" stroke-width="1.98099"></path>
                <path d="M329.5,242.84243 C330.1,232.34243 328.5,212.44243 328.5,212.44243 C328.5,212.44243 338.3,208.34243 351.2,208.24243 C352.4,215.54243 351.1,240.54243 351.1,240.54243" id="Stroke-16" stroke="#E0E8EB" stroke-width="1.98099"></path>
                <path d="M315,178.94243 C315,178.94243 324.9,174.84243 337.8,174.74243" id="Stroke-17" stroke="#BDD5DD" stroke-width="1.98099"></path>
                <path d="M279.8,130.94243 C279.8,130.94243 287.8,127.94243 298,127.94243" id="Stroke-18" stroke="#E0E8EB" stroke-width="1.98099"></path>
                <path d="M365.8,16.8424296 C365.8,16.8424296 375.4,10.9424296 390.1,10.8424296" id="Stroke-19" stroke="#E0E8EB" stroke-width="1.98099"></path>
                <path d="M273.8,227.54243 C273.8,227.54243 284.7,225.54243 299.1,225.34243" id="Stroke-20" stroke="#BDD5DD" stroke-width="1.98099"></path>
                <path d="M328.9,351.44243 C329.4,341.44243 327.9,322.64243 327.9,322.64243 C327.9,322.64243 337.2,318.84243 349.4,318.74243 C350.4,325.54243 349.3,349.14243 349.3,349.14243" id="Stroke-21" stroke="#E0E8EB" stroke-width="1.98099"></path>
                <path d="M237.1,203.94243 L220,205.54243 C220,205.54243 219.5,190.64243 219.2,182.84243 C229,179.74243 237,179.84243 237,179.84243 L237.1,203.94243 Z" id="Fill-22" fill="#97B9C6"></path>
                <path d="M420.4,84.0424296 C420.4,84.0424296 413.4,85.7424296 403.7,87.2424296 C404,80.1424296 400.8,65.8424296 400.8,65.8424296 C400.8,65.8424296 411.7,60.4424296 419.5,59.8424296 C421.9,64.4424296 420.4,84.0424296 420.4,84.0424296 Z" id="Fill-23" fill="#97B9C6"></path>
                <path d="M448.1,19.6424296 C457.3,16.9424296 467.8,12.7424296 467.8,12.7424296" id="Stroke-24" stroke="#E0E8EB" stroke-width="1.98099" stroke-linecap="round"></path>
                <path d="M401.2,72.0424296 C401.2,72.0424296 410.157529,66.1424296 421.2,65.9424296" id="Stroke-25" stroke="#BDD5DD" stroke-width="1.98099"></path>
                <path d="M182.7,293.44243 L184.1,352.94243 L318.7,352.94243 L318.7,342.04243 C318.7,342.04243 306.5,324.04243 285.4,318.34243 C264.2,312.54243 276.4,283.04243 251.4,283.04243 C231.5,283.04243 200.5,286.14243 188.8,286.24243 C186.2,286.34243 182.7,290.84243 182.7,293.44243 Z" id="Fill-114" fill="#ECF0F1"></path>
                <path d="M182.3,292.24243 L184.1,352.94243 L253.9,352.94243 C253.9,352.94243 246,309.14243 248.7,283.04243 C228.8,283.04243 200.5,284.94243 188.8,286.24243 C186.2,286.54243 182.3,289.54243 182.3,292.24243 Z" id="Fill-115" fill="#C9D4D7"></path>
                <path d="M177.6,355.84243 L177.6,350.64243 C177.6,349.24243 178.7,348.24243 180.1,348.14243 C194.4,348.14243 268.3,347.74243 322.6,342.44243 C323.4,342.34243 324,342.94243 324,343.74243 L324,352.64243 L177.6,355.84243 Z" id="Fill-116" fill="#B4C0C3"></path>
                <path d="M177.5,355.84243 L177.5,350.64243 C177.5,349.24243 178.6,348.24243 180,348.14243 C194.2,348.14243 268.2,347.74243 322.5,342.44243 C323.3,342.34243 323.9,342.94243 323.9,343.74243 L323.9,352.64243" id="Stroke-117" stroke="#203568" stroke-width="1.98099"></path>
                <path d="M318.7,342.54243 C318.7,342.54243 306.5,323.84243 285.4,318.04243 C264.2,312.34243 276.4,282.84243 251.4,282.84243 C231.7,282.84243 199.8,284.74243 187.5,286.94243 C184.7,287.54243 182.3,289.34243 182.3,292.24243 C182.3,292.24243 180.8,318.54243 185,347.54243" id="Stroke-118" stroke="#203568" stroke-width="1.98099"></path>
                <path d="M253,346.74243 C253,346.74243 248,320.84243 248,283.04243" id="Stroke-119" stroke="#203568" stroke-width="1.98099"></path>
                <path d="M258.7,346.24243 C258.7,346.24243 259,353.14243 259.8,355.04243 L258.7,346.24243 Z" id="Fill-120" fill="#B4C0C3"></path>
                <path d="M258.7,346.24243 C258.7,346.24243 259,353.14243 259.8,355.04243" id="Stroke-121" stroke="#203568" stroke-width="1.98099"></path>
                <path d="M223.6,283.64243 L217.3,284.04243 C217.3,284.04243 214.9,275.64243 215.5,264.24243 C218.2,263.84243 219.4,264.04243 221.8,264.24243 C221.3,271.14243 223.6,283.64243 223.6,283.64243 Z" id="Fill-122" fill="#B4C0C3"></path>
                <path d="M223.6,283.64243 L217.3,284.04243 C217.3,284.04243 214.9,275.64243 215.5,264.24243 C218.2,263.84243 219.4,264.04243 221.8,264.24243 C221.3,271.14243 223.6,283.64243 223.6,283.64243 Z" id="Stroke-123" stroke="#203568" stroke-width="1.98099"></path>
                <path d="M245,263.74243 L205.2,265.24243 C202.4,265.34243 200.2,263.04243 200.3,260.24243 L200.7,252.14243 C200.9,249.84243 202.7,247.84243 205,247.64243 L244.8,243.34243 C247.7,243.04243 250.2,246.14243 250.1,249.04243 L249.6,259.24243 C249.5,261.74243 247.5,263.64243 245,263.74243 Z" id="Fill-124" fill="#ECF0F1"></path>
                <path d="M245,263.74243 L205.2,265.24243 C202.4,265.34243 200.2,263.04243 200.3,260.24243 L200.7,252.14243 C200.9,249.84243 202.7,247.84243 205,247.64243 L244.8,243.34243 C247.7,243.04243 250.2,246.14243 250.1,249.04243 L249.6,259.24243 C249.5,261.74243 247.5,263.64243 245,263.74243 Z" id="Stroke-125" stroke="#203568" stroke-width="1.98099"></path>
                <path d="M238.7,263.74243 L198.8,265.24243 C196,265.34243 193.8,263.04243 193.9,260.24243 L194.4,252.04243 C194.5,249.74243 196.3,247.84243 198.6,247.64243 L238.4,244.04243 C241.3,243.74243 243.8,246.14243 243.7,249.04243 L243.2,259.24243 C243.1,261.74243 241.1,263.64243 238.7,263.74243 Z" id="Fill-126" fill="#B4C0C3"></path>
                <path d="M238.7,263.74243 L198.8,265.24243 C196,265.34243 193.8,263.04243 193.9,260.24243 L194.4,252.04243 C194.5,249.74243 196.3,247.84243 198.6,247.64243 L238.4,244.04243 C241.3,243.74243 243.8,246.14243 243.7,249.04243 L243.2,259.24243 C243.1,261.74243 241.1,263.64243 238.7,263.74243 Z" id="Stroke-127" stroke="#203568" stroke-width="1.98099"></path>
                <path d="M3.2,353.04243 C168.266667,361.640921 336.533333,355.774254 508,335.44243" id="Stroke-129" stroke="#203568" stroke-width="1.98099" stroke-linecap="round"></path>
            </g>
        </g>
    </g>
</svg>