<?xml version="1.0" encoding="UTF-8"?>
<svg width="192px" height="241px" viewBox="0 0 192 241" version="1.1" xmlns="http://www.w3.org/2000/svg" xmlns:xlink="http://www.w3.org/1999/xlink">
    <!-- Generator: Sketch 53.2 (72643) - https://sketchapp.com -->
    <title>woman-active</title>
    <desc>Created with Sketch.</desc>
    <defs>
        <path d="M119.371678,254 C66.6680299,253.033729 31.3399751,252.050594 13.3875136,251.050594 C-4.5649479,250.050594 -4.4619166,205.333729 13.6966075,116.9 L13.3875136,33.2 L79.6685878,-9.9475983e-14 C124.532303,1.4703002 145.641244,8.24620858 142.995411,20.3277251 C139.026661,38.45 128.768588,114.4 147.968588,119.2 C167.168588,124 200.66822,127.131811 207.716765,138.83473 C212.415794,146.636675 207.399735,163.225099 192.668588,188.6 C180.484062,217.140603 168.867291,233.073936 157.818274,236.4 C146.769257,239.726064 133.953725,245.592731 119.371678,254 Z" id="path-1"></path>
    </defs>
    <g id="Page-18" stroke="none" stroke-width="1" fill="none" fill-rule="evenodd">
        <g id="Artboard-3" transform="translate(-69.000000, -270.000000)">
            <g id="woman-active" transform="translate(56.331412, 257.051181)">
                <mask id="mask-2" fill="white">
                    <use xlink:href="#path-1"></use>
                </mask>
                <g id="Mask"></g>
                <g mask="url(#mask-2)">
                    <g transform="translate(13.387514, 13.218357)">
                        <path d="M148.281074,156.781643 C148.281074,156.781643 139.281074,188.781643 129.281074,188.781643 C128.281074,188.781643 123.181074,170.481643 118.281074,156.781643 C113.281074,142.781643 107.881074,136.681643 80.1810741,130.981643 C70.3810741,128.981643 60.8810741,128.481643 51.1810741,129.481643 C33.4810741,131.181643 16.3810741,132.681643 7.58107414,144.081643 C-8.21892586,164.681643 5.58107414,263.481643 5.58107414,263.481643 C5.58107414,263.481643 51.2810741,289.281643 89.2810741,269.781643 C94.5810741,265.181643 98.2810741,260.781643 98.2810741,235.781643 C98.2810741,220.781643 99.2810741,218.481643 103.281074,211.781643 C106.281074,206.781643 106.281074,204.781643 105.281074,200.781643 C106.781074,200.281643 116.281074,214.781643 129.281074,214.781643 C156.281074,214.781643 164.281074,157.781643 164.281074,157.781643 L148.281074,156.781643 Z" id="Fill-333" stroke="none" fill="#18BBEB" fill-rule="evenodd"></path>
                        <path d="M165.881074,148.981643 C165.481074,149.081643 173.781074,145.181643 179.881074,139.881643 C184.281074,139.781643 188.681074,136.481643 189.281074,135.781643 C190.081074,134.981643 186.581074,133.881643 184.281074,134.781643 C186.181074,132.281643 186.781074,130.581643 186.081074,127.981643 C185.481074,126.281643 177.481074,134.381643 174.381074,134.581643 C166.681074,135.081643 160.681074,136.481643 156.781074,132.581643 C151.781074,123.381643 147.481074,122.881643 145.881074,122.681643 C144.581074,122.481643 142.781074,124.681643 147.981074,131.781643 C149.981074,134.481643 146.281074,138.081643 150.381074,145.681643 C150.381074,153.781643 165.181074,155.281643 165.881074,148.981643 Z" id="Fill-334" stroke="none" fill="#EDCAB0" fill-rule="evenodd"></path>
                        <polygon id="Fill-335" stroke="none" fill="#18BBEB" fill-rule="evenodd" points="166.281074 158.781643 147.281074 156.781643 146.281074 150.781643 149.281074 149.781643 167.281074 151.781643 168.281074 155.781643"></polygon>
                        <path d="M155.281074,149.781643 C155.281074,149.781643 151.281074,153.781643 156.281074,156.781643 C150.281074,157.781643 146.981074,156.181643 146.081074,153.481643 C145.281074,150.781643 148.081074,147.981643 155.281074,149.781643 Z" id="Fill-336" stroke="none" fill="#0A98CD" fill-rule="evenodd"></path>
                        <path d="M156.281074,157.781643 C156.281074,157.781643 152.481074,207.881643 133.281074,214.781643 C126.581074,217.181643 116.581074,211.581643 106.281074,200.781643 C106.281074,200.781643 106.481074,199.781643 104.281074,193.781643 C101.981074,187.781643 98.2810741,172.781643 99.7810741,169.081643 C101.281074,174.781643 123.981074,198.081643 131.281074,190.781643 C139.281074,182.781643 149.281074,156.781643 149.281074,156.781643 L156.281074,157.781643 Z" id="Fill-337" stroke="none" fill="#0A98CD" fill-rule="evenodd"></path>
                        <path d="M4.28107414,152.781643 C3.08107414,173.181643 7.18107414,225.481643 15.3810741,249.781643 L4.28107414,249.781643 C4.28107414,249.781643 -4.71892586,181.781643 4.28107414,152.781643 Z" id="Fill-338" stroke="none" fill="#0A98CD" fill-rule="evenodd"></path>
                        <path d="M27.2810741,176.781643 C27.2810741,176.781643 26.7810741,238.881643 38.2810741,263.781643 C32.4810741,262.581643 22.2810741,264.781643 22.2810741,264.781643 C22.2810741,264.781643 22.0810741,203.681643 27.2810741,176.781643 Z" id="Fill-339" stroke="none" fill="#0A98CD" fill-rule="evenodd"></path>
                        <path d="M39.4810741,130.281643 C50.6810741,136.681643 66.6810741,153.681643 74.0810741,162.081643 C84.6810741,148.181643 84.7810741,131.881643 84.7810741,131.881643 C84.7810741,131.881643 57.3810741,126.981643 39.4810741,130.281643 Z" id="Fill-340" stroke="none" fill="#FFFFFF" fill-rule="evenodd"></path>
                        <path d="M108.081074,43.4816431 C108.081074,43.4816431 100.781074,56.2816431 107.581074,85.2816431 C107.581074,85.2816431 104.381074,105.981643 78.3810741,106.281643 C74.7810741,114.781643 78.7810741,131.781643 78.7810741,131.781643 C78.7810741,131.781643 73.7810741,147.281643 52.1810741,129.481643 C52.1810741,129.481643 56.7810741,120.281643 56.6810741,115.781643 C62.0810741,116.181643 66.3810741,116.281643 66.3810741,116.281643 C66.3810741,116.281643 53.8810741,104.681643 51.6810741,83.1816431 C49.3810741,61.6816431 49.7810741,46.2816431 49.7810741,46.2816431 C49.7810741,46.2816431 86.8810741,34.8816431 89.4810741,32.0816431 C92.0810741,29.2816431 108.081074,43.4816431 108.081074,43.4816431 Z" id="Fill-341" stroke="none" fill="#EDC9AD" fill-rule="evenodd"></path>
                        <path d="M109.381074,42.2816431 C109.381074,42.2816431 101.481074,46.8816431 89.4810741,32.1816431 C79.0810741,43.6816431 62.1810741,48.7816431 60.1810741,49.4816431 C60.1810741,49.4816431 55.4810741,48.7816431 51.8810741,48.6816431 C52.1810741,50.8816431 54.2810741,57.6816431 55.4810741,59.7816431 C51.1810741,72.2816431 47.5810741,93.7816431 65.4810741,115.981643 C13.5810741,120.481643 -13.9189259,43.8816431 36.8810741,12.9816431 C81.2810741,-13.9183569 115.281074,3.48164306 109.381074,42.2816431 Z" id="Fill-342" stroke="none" fill="#84674D" fill-rule="evenodd"></path>
                        <path d="M92.6810741,103.181643 C92.6810741,103.181643 94.2810741,108.481643 102.281074,111.681643 C91.5810741,122.781643 77.5810741,121.281643 77.1810741,120.081643 C76.6810741,118.781643 78.2810741,107.881643 78.3810741,106.281643 C84.1810741,105.781643 89.2810741,103.981643 92.6810741,103.181643 Z" id="Fill-343" stroke="none" fill="#84674D" fill-rule="evenodd"></path>
                        <path d="M52.4810741,70.2816431 C52.4810741,70.2816431 45.5810741,94.2816431 66.2810741,115.781643 C59.2810741,114.481643 32.2810741,101.281643 52.4810741,70.2816431 Z" id="Fill-344" stroke="none" fill="#B7977D" fill-rule="evenodd"></path>
                        <path d="M92.8810741,103.681643 C92.8810741,103.681643 82.5810741,109.381643 89.8810741,119.881643 C92.7810741,118.881643 99.7810741,114.381643 102.381074,112.281643 C96.0810741,108.881643 93.1810741,105.981643 92.8810741,103.681643 Z" id="Fill-345" stroke="none" fill="#B7977D" fill-rule="evenodd"></path>
                        <path d="M109.381074,42.2816431 C109.381074,42.2816431 100.181074,47.1816431 89.3810741,31.2816431 C54.1810741,41.0816431 45.4810741,13.2816431 46.2810741,7.98164306 C54.5810741,2.88164306 89.7810741,-8.21835694 102.881074,10.6816431 C113.181074,25.4816431 109.381074,42.2816431 109.381074,42.2816431 Z" id="Fill-346" stroke="none" fill="#B7977D" fill-rule="evenodd"></path>
                        <path d="M63.5810741,116.281643 C63.5810741,116.281643 65.2810741,131.381643 72.2810741,137.281643 C64.0810741,137.681643 57.6810741,134.881643 52.1810741,129.481643 C55.3810741,123.481643 56.3810741,117.881643 56.6810741,115.781643 C59.6810741,115.881643 63.5810741,116.281643 63.5810741,116.281643 Z" id="Fill-347" stroke="none" fill="#D1AC92" fill-rule="evenodd"></path>
                        <path d="M78.5810741,130.781643 C78.5810741,130.781643 75.3810741,114.681643 78.3810741,106.281643" id="Stroke-348" stroke="#203568" stroke-width="1.98099" fill="none" stroke-linecap="round"></path>
                        <path d="M56.3810741,116.281643 C56.3810741,122.281643 52.1810741,129.481643 52.1810741,129.481643" id="Stroke-349" stroke="#203568" stroke-width="1.98099" fill="none" stroke-linecap="round"></path>
                        <path d="M112.781074,55.4816431 C112.781074,55.4816431 101.281074,56.7816431 93.5810741,58.0816431 C89.6810741,61.8816431 93.5810741,72.1816431 99.9810741,72.1816431 C110.281074,72.1816431 112.781074,55.4816431 112.781074,55.4816431 Z" id="Stroke-350" stroke="#203568" stroke-width="1.98099" fill="none" stroke-linecap="round"></path>
                        <path d="M87.1810741,58.0816431 C87.1810741,58.0816431 91.0810741,74.6816431 76.9810741,74.6816431 C62.8810741,74.6816431 55.9810741,52.0816431 55.9810741,52.0816431 L87.1810741,58.0816431 Z" id="Stroke-351" stroke="#203568" stroke-width="1.98099" fill="none" stroke-linecap="round"></path>
                        <path d="M71.2810741,50.7816431 C71.2810741,50.7816431 75.2810741,47.7816431 80.7810741,47.7816431" id="Stroke-352" stroke="#203568" stroke-width="1.98099" fill="none" stroke-linecap="round"></path>
                        <path d="M95.2810741,49.7816431 C95.2810741,49.7816431 100.281074,50.7816431 102.281074,52.7816431" id="Stroke-353" stroke="#203568" stroke-width="1.98099" fill="none" stroke-linecap="round"></path>
                        <path d="M79.8810741,63.4816431 C80.1810741,64.8816431 79.4810741,66.2816431 78.2810741,66.5816431 C77.0810741,66.7816431 75.8810741,65.7816431 75.5810741,64.3816431 C75.2810741,62.8816431 75.9810741,61.4816431 77.1810741,61.2816431 C78.3810741,60.9816431 79.5810741,61.9816431 79.8810741,63.4816431 Z" id="Fill-354" stroke="none" fill="#203568" fill-rule="evenodd"></path>
                        <path d="M101.281074,63.8816431 C101.281074,65.2816431 100.381074,66.3816431 99.2810741,66.3816431 C98.1810741,66.3816431 97.2810741,65.2816431 97.2810741,63.8816431 C97.2810741,62.5816431 98.1810741,61.4816431 99.2810741,61.4816431 C100.381074,61.4816431 101.281074,62.5816431 101.281074,63.8816431 Z" id="Fill-355" stroke="none" fill="#203568" fill-rule="evenodd"></path>
                        <path d="M98.8810741,87.5816431 C93.2810741,91.7816431 84.7810741,90.7816431 84.7810741,90.7816431" id="Stroke-356" stroke="#203568" stroke-width="1.98099" fill="none" stroke-linecap="round"></path>
                        <path d="M69.1810741,104.181643 C73.5810741,105.981643 78.8810741,105.981643 78.8810741,105.981643 C98.3810741,104.181643 106.781074,95.2816431 106.781074,83.3816431 C106.781074,74.4816431 101.981074,55.5816431 107.281074,45.8816431" id="Stroke-357" stroke="#203568" stroke-width="1.98099" fill="none" stroke-linecap="round"></path>
                        <path d="M60.3810741,49.2816431 C82.3810741,42.2816431 89.3810741,31.2816431 89.3810741,31.2816431 C89.3810741,31.2816431 99.3810741,46.2816431 109.381074,42.2816431 C109.381074,42.2816431 118.381074,-4.71835694 70.3810741,1.28164306 C-14.7189259,11.8816431 -3.61892586,117.281643 66.3810741,116.281643 C54.3810741,100.281643 46.3810741,87.2816431 55.3810741,60.2816431" id="Stroke-358" stroke="#203568" stroke-width="1.98099" fill="none" stroke-linecap="round"></path>
                        <path d="M93.3810741,103.281643 C93.3810741,103.281643 93.1810741,107.381643 102.281074,111.681643 C96.2810741,117.681643 87.6810741,122.381643 77.3810741,120.581643" id="Stroke-359" stroke="#203568" stroke-width="1.98099" fill="none" stroke-linecap="round"></path>
                        <path d="M39.7810741,130.481643 C39.7810741,130.481643 55.5810741,140.481643 74.2810741,162.281643 C85.5810741,146.281643 84.7810741,136.281643 84.7810741,132.081643" id="Stroke-360" stroke="#203568" stroke-width="1.98099" fill="none" stroke-linecap="round"></path>
                        <path d="M74.2810741,162.281643 C82.8810741,195.581643 75.4810741,239.581643 77.5810741,269.581643" id="Stroke-361" stroke="#203568" stroke-width="1.98099" fill="none" stroke-linecap="round"></path>
                        <path d="M106.281074,200.781643 C115.281074,208.881643 120.181074,213.481643 129.281074,214.781643 C143.281074,216.781643 161.281074,191.781643 164.281074,158.781643 C158.281074,157.781643 157.281074,157.781643 149.281074,156.781643 C138.281074,184.781643 134.281074,188.781643 129.981074,188.781643 C125.281074,188.781643 123.281074,160.781643 113.081074,146.581643 C103.981074,133.881643 78.7810741,130.981643 78.7810741,130.981643 C78.7810741,130.981643 79.7810741,136.381643 71.2810741,137.781643 C65.0810741,138.781643 56.2810741,134.581643 52.3810741,129.681643 C38.9810741,129.281643 14.9810741,133.681643 7.58107414,144.181643 C-7.51892586,165.581643 5.58107414,263.481643 5.58107414,263.481643 L24.8810741,262.781643 C17.8810741,244.481643 27.2810741,176.781643 27.2810741,176.781643" id="Stroke-362" stroke="#203568" stroke-width="1.98099" fill="none" stroke-linecap="round"></path>
                        <path d="M99.1810741,167.981643 C99.1810741,167.981643 99.4810741,181.681643 103.581074,190.981643 C109.281074,203.981643 103.581074,212.681643 99.4810741,218.381643 C97.2810741,221.581643 98.7810741,242.681643 100.481074,260.181643" id="Stroke-363" stroke="#203568" stroke-width="1.98099" fill="none" stroke-linecap="round"></path>
                        <path d="M164.381074,158.481643 L149.381074,156.781643 C147.281074,156.481643 145.781074,154.581643 145.981074,152.481643 C146.181074,150.381643 148.081074,148.881643 150.181074,149.181643 L165.181074,150.881643 C167.281074,151.081643 168.781074,152.981643 168.581074,155.081643 C168.381074,157.181643 166.481074,158.681643 164.381074,158.481643 Z" id="Stroke-364" stroke="#203568" stroke-width="1.98099" fill="none" stroke-linecap="round"></path>
                        <path d="M184.781074,134.381643 C184.781074,134.381643 191.681074,133.181643 188.581074,136.381643 C184.881074,140.081643 179.581074,140.381643 179.281074,140.781643" id="Stroke-365" stroke="#213666" stroke-width="1.98099" fill="none" stroke-linecap="round"></path>
                        <path d="M165.281074,150.781643 C165.281074,150.781643 165.281074,150.781643 165.481074,148.981643 C184.981074,142.281643 188.581074,126.281643 185.781074,127.381643 C182.781074,128.681643 179.681074,133.481643 175.781074,134.181643 C171.781074,134.981643 158.781074,137.281643 156.081074,131.381643 C154.781074,128.481643 147.781074,120.481643 145.081074,122.981643 C142.581074,125.281643 148.081074,129.281643 148.281074,133.081643 C147.781074,142.781643 150.381074,145.681643 150.381074,145.681643 L150.281074,148.781643" id="Stroke-366" stroke="#213666" stroke-width="1.98099" fill="none" stroke-linecap="round"></path>
                        <path d="M167.481074,138.281643 C167.481074,138.281643 174.181074,136.481643 177.981074,133.581643 L167.481074,138.281643 Z" id="Fill-367" stroke="none" fill="#EDCAB0" fill-rule="evenodd"></path>
                        <path d="M167.481074,138.281643 C167.481074,138.281643 174.181074,136.481643 177.981074,133.581643" id="Stroke-368" stroke="#213666" stroke-width="1.98099" fill="none" stroke-linecap="round"></path>
                        <path d="M161.581074,139.381643 C160.481074,139.781643 159.281074,140.381643 158.781074,141.581643 L161.581074,139.381643 Z" id="Fill-369" stroke="none" fill="#EDCAB0" fill-rule="evenodd"></path>
                        <path d="M161.581074,139.381643 C160.481074,139.781643 159.281074,140.381643 158.781074,141.581643" id="Stroke-370" stroke="#213666" stroke-width="1.98099" fill="none" stroke-linecap="round"></path>
                        <path d="M78.9810741,177.681643 C79.3810741,179.081643 78.6810741,180.481643 77.5810741,180.781643 C76.4810741,180.981643 75.2810741,180.081643 74.9810741,178.681643 C74.5810741,177.181643 75.2810741,175.881643 76.3810741,175.581643 C77.4810741,175.381643 78.6810741,176.281643 78.9810741,177.681643 Z" id="Fill-371" stroke="none" fill="#18BBEB" fill-rule="evenodd"></path>
                        <path d="M78.9810741,177.681643 C79.3810741,179.081643 78.6810741,180.481643 77.5810741,180.781643 C76.4810741,180.981643 75.2810741,180.081643 74.9810741,178.681643 C74.5810741,177.181643 75.2810741,175.881643 76.3810741,175.581643 C77.4810741,175.381643 78.6810741,176.281643 78.9810741,177.681643 Z" id="Stroke-372" stroke="#203568" stroke-width="1.98099" fill="none" stroke-linecap="round"></path>
                        <path d="M80.0810741,200.281643 C80.0810741,201.681643 79.1810741,202.881643 77.9810741,202.881643 C76.8810741,202.881643 75.8810741,201.681643 75.8810741,200.181643 C75.8810741,198.781643 76.8810741,197.581643 77.9810741,197.581643 C79.1810741,197.581643 80.0810741,198.781643 80.0810741,200.281643 Z" id="Fill-373" stroke="none" fill="#18BBEB" fill-rule="evenodd"></path>
                        <path d="M80.0810741,200.281643 C80.0810741,201.681643 79.1810741,202.881643 77.9810741,202.881643 C76.8810741,202.881643 75.8810741,201.681643 75.8810741,200.181643 C75.8810741,198.781643 76.8810741,197.581643 77.9810741,197.581643 C79.1810741,197.581643 80.0810741,198.781643 80.0810741,200.281643 Z" id="Stroke-374" stroke="#203568" stroke-width="1.98099" fill="none" stroke-linecap="round"></path>
                        <path d="M80.0810741,222.281643 C80.0810741,223.681643 79.1810741,224.881643 77.9810741,224.881643 C76.8810741,224.881643 75.8810741,223.681643 75.8810741,222.181643 C75.8810741,220.781643 76.8810741,219.581643 77.9810741,219.581643 C79.1810741,219.581643 80.0810741,220.781643 80.0810741,222.281643 Z" id="Fill-375" stroke="none" fill="#18BBEB" fill-rule="evenodd"></path>
                        <path d="M80.0810741,222.281643 C80.0810741,223.681643 79.1810741,224.881643 77.9810741,224.881643 C76.8810741,224.881643 75.8810741,223.681643 75.8810741,222.181643 C75.8810741,220.781643 76.8810741,219.581643 77.9810741,219.581643 C79.1810741,219.581643 80.0810741,220.781643 80.0810741,222.281643 Z" id="Stroke-376" stroke="#203568" stroke-width="1.98099" fill="none" stroke-linecap="round"></path>
                    </g>
                </g>
            </g>
        </g>
    </g>
</svg>