<?xml version="1.0" encoding="UTF-8"?>
<svg width="316px" height="151px" viewBox="0 0 316 151" version="1.1" xmlns="http://www.w3.org/2000/svg" xmlns:xlink="http://www.w3.org/1999/xlink">
    <!-- Generator: Sketch 53.2 (72643) - https://sketchapp.com -->
    <title>bubble-seller-red</title>
    <desc>Created with Sketch.</desc>
    <g id="Page-18" stroke="none" stroke-width="1" fill="none" fill-rule="evenodd">
        <g id="Artboard-4" transform="translate(-163.000000, -145.000000)">
            <g id="bubble-seller-red" transform="translate(164.700000, 146.651181)">
                <path d="M298.9,20.4 C294.7,7.7 287,7.2 279.9,6.6 L10.1,0 C5.6,0.3 1.3,4 0.5,9.2 L2.1,91.2 C3.1,97.9 5.5,101.6 12.2,101.7 L196.3,103 C199.7,103.1 203,104.2 205.8,106.3 L258.9,146.5 L252.6,107.4 C252.2,105.3 253.9,103.3 256,103.3 L287.9,103.5 C300.9,104.5 311.6,101.1 313.7,89.7 C313.7,89.7 303,33.2 298.9,20.4 Z" id="Fill-462" fill="#DF514E"></path>
                <path d="M280.4,6.6 L10.5,5.68434189e-14 C6.1,0.3 1.8,4 1,9.2 L2.6,91.2 C2.9,93.3 4.9,39.7 6.5,16.3 C7,9.7 10.5,7.6 17.1,7.5 C69.7,7.4 284.1,6.9 280.4,6.6 Z" id="Fill-463" fill="#AA3535"></path>
                <path d="M298.4,20.4 C294.2,7.7 286.5,7.2 279.4,6.6 L9.5,0 C5.2,0.3 0.8,4 5.40012479e-13,9.2 L1.6,91.2 C2.6,97.9 5,101.6 11.7,101.7 L195.8,103 C199.2,103.1 202.5,104.2 205.3,106.3 L258.4,146.5 L252.2,108.1 C251.8,105.6 253.7,103.3 256.2,103.3 L287.4,103.5 C300.730046,103.5 311.8,100.849849 313.2,89.7 C314.366528,79.5875433 302.5,33.2 298.4,20.4 Z" id="Stroke-464" stroke="#203568" stroke-width="1.98099"></path>
            </g>
        </g>
    </g>
</svg>