<?xml version="1.0" encoding="UTF-8"?>
<svg width="124px" height="256px" viewBox="0 0 124 256" version="1.1" xmlns="http://www.w3.org/2000/svg" xmlns:xlink="http://www.w3.org/1999/xlink">
    <!-- Generator: Sketch 53.2 (72643) - https://sketchapp.com -->
    <title>man-inactive</title>
    <desc>Created with Sketch.</desc>
    <defs>
        <path d="M8.44149524,258.057019 L131.463524,260.457019 C140.611585,147.95121 141.431846,74.2512096 133.924307,39.3570188 C122.662999,-12.9842673 61.728137,-3.53041115 38.662917,13.284168 C15.597697,30.0987471 -15.0690026,195.437205 8.44149524,258.057019 Z" id="path-1"></path>
    </defs>
    <g id="Page-18" stroke="none" stroke-width="1" fill="none" fill-rule="evenodd">
        <g id="Artboard-2" transform="translate(-58.000000, -256.000000)">
            <g id="man-inactive" transform="translate(52.237083, 250.894162)">
                <mask id="mask-2" fill="white">
                    <use xlink:href="#path-1"></use>
                </mask>
                <g id="Mask"></g>
                <g mask="url(#mask-2)">
                    <g transform="translate(6.821828, 6.657019)">
                        <path d="M86.9410889,112.6 C83.9410889,122 89.0410889,134.8 88.6410889,140.7 C88.2410889,146.5 47.1410889,142.3 49.1410889,133.9 C52.1410889,121.3 56.0410889,117 57.1410889,102.3 C57.7410889,93.9 88.1410889,108.5 86.9410889,112.6 Z" id="Fill-156" stroke="none" fill="#CADCE0" fill-rule="evenodd"></path>
                        <path d="M72.0410889,111 C72.0410889,111 70.0410889,136.4 63.2410889,137.5 C61.1410889,137.9 52.0410889,132 51.2410889,125.5 C53.7410889,119.8 57.6410889,111.8 57.4410889,104.5 C71.1410889,112 72.0410889,111 72.0410889,111 Z" id="Fill-157" stroke="none" fill="#8DAFB7" fill-rule="evenodd"></path>
                        <path d="M86.9410889,112.6 C83.9410889,122 89.0410889,134.8 88.6410889,140.7 C88.2410889,146.5 47.1410889,142.3 49.1410889,133.9 C52.1410889,121.3 56.0410889,117 57.1410889,102.3 C57.7410889,93.9 88.1410889,108.5 86.9410889,112.6 Z" id="Stroke-158" stroke="#203568" stroke-width="1.98099" fill="none"></path>
                        <path d="M108.041089,56.5 C108.041089,56.5 108.441089,60.1 108.741089,65.5 C109.441089,79.6 109.341089,106 98.6410889,111.1 C83.7410889,118 64.2410889,109 55.4410889,102.4 C46.5410889,95.7 47.4410889,87.7 47.4410889,87.7 C47.4410889,87.7 37.6410889,86.8 38.2410889,76.8 C38.8410889,66.8 44.0410889,42.5 49.5410889,39.8 C54.9410889,37 83.4410889,24.9 94.6410889,32.5 C105.841089,40.1 108.041089,56.5 108.041089,56.5 Z" id="Fill-159" stroke="none" fill="#CADCE0" fill-rule="evenodd"></path>
                        <path d="M47.6410889,74.6 C47.6410889,74.6 52.7410889,76.1 51.0410889,81.6" id="Stroke-160" stroke="#203568" stroke-width="1.98099" fill="none" stroke-linecap="round" stroke-linejoin="round"></path>
                        <path d="M105.841089,47.4 C106.441089,47.6 107.941089,54.4 107.941089,54.4 C116.741089,50.3 118.141089,36.6 113.641089,35.4 C120.141089,17.5 110.441089,7.2 96.9410889,-1.13686838e-13 C81.4410889,24.9 35.7410889,-3.4 34.5410889,30.4 C17.9410889,38.4 24.4410889,68.6 38.0410889,77.2 C40.0410889,64.4 52.6410889,67.5 56.1410889,75 C56.4410889,75.5 57.0410889,75.4 57.3410889,74.9 C60.2410889,68.7 61.2410889,61.3 57.5410889,52.2 C57.5410889,52.2 60.2410889,50.2 60.9410889,46.9 C64.6410889,48.5 93.2410889,57.4 105.841089,47.4 Z" id="Fill-161" stroke="none" fill="#789DA8" fill-rule="evenodd"></path>
                        <path d="M96.9410889,1.4 C69.0410889,64.9 106.641089,45.3 106.641089,45.3 C106.641089,45.3 107.341089,49.9 107.941089,53.9 C112.641089,53.3 119.541089,39.7 113.441089,35.4 C117.841089,24.7 117.041089,11.3 96.9410889,1.4 Z" id="Fill-162" stroke="none" fill="#A3BEC6" fill-rule="evenodd"></path>
                        <path d="M58.3410889,73.9 C58.3410889,73.9 56.8410889,87.1 66.5410889,90.9 C74.1410889,93.9 86.8410889,80.9 100.941089,83.9 C108.041089,85.5 106.741089,94.9 106.741089,94.9 C106.741089,94.9 107.541089,111.1 91.2410889,113.1 C74.8410889,115.1 47.1410889,104.9 47.5410889,87.2 C54.3410889,87.8 55.8410889,81.1 56.3410889,75.9 C56.6410889,73 58.3410889,73.9 58.3410889,73.9 Z" id="Fill-163" stroke="none" fill="#789DA8" fill-rule="evenodd"></path>
                        <path d="M105.641089,47.4 C106.241089,47.6 107.841089,54.4 107.841089,54.4 C116.541089,50.3 117.941089,36.6 113.441089,35.4 C119.941089,17.5 110.241089,7.2 96.7410889,-1.13686838e-13 C81.2410889,24.9 35.5410889,-3.4 34.3410889,30.4 C17.7410889,38.4 24.2410889,68.6 37.8410889,77.2 C39.8410889,64.4 52.4410889,67.5 55.9410889,75 C56.2410889,75.5 56.9410889,75.4 57.1410889,74.9 C60.0410889,68.7 61.0410889,61.3 57.3410889,52.2 C57.3410889,52.2 60.0410889,50.2 60.7410889,46.9 C64.7410889,48.6 97.0410889,59.4 107.741089,45" id="Stroke-164" stroke="#203568" stroke-width="1.98099" fill="none" stroke-linecap="round"></path>
                        <path d="M61.1410889,44 C60.8410889,51.9 55.2410889,53.6 53.1410889,53.3" id="Stroke-165" stroke="#203568" stroke-width="1.98099" fill="none" stroke-linecap="round"></path>
                        <path d="M108.741089,68.6 C109.341089,83.2 108.541089,106.3 98.4410889,111 C83.6410889,118 64.0410889,109 55.2410889,102.3 C46.4410889,95.7 47.2410889,87.7 47.2410889,87.7 C47.2410889,87.7 37.3410889,86.8 37.9410889,76.8" id="Stroke-166" stroke="#203568" stroke-width="1.98099" fill="none" stroke-linecap="round"></path>
                        <path d="M105.941089,48 C107.641089,52.7 107.941089,56.4 107.941089,56.4" id="Stroke-167" stroke="#203568" stroke-width="1.98099" fill="none" stroke-linecap="round"></path>
                        <path d="M100.941089,92.4 C94.7410889,101.7 84.6410889,93 84.6410889,93" id="Stroke-168" stroke="#203568" stroke-width="1.98099" fill="none" stroke-linecap="round"></path>
                        <path d="M85.9410889,68.4 C86.3410889,70 85.5410889,71.6 84.1410889,71.9 C82.7410889,72.1 81.4410889,71.1 81.0410889,69.4 C80.7410889,67.7 81.5410889,66.2 82.8410889,65.9 C84.2410889,65.6 85.6410889,66.7 85.9410889,68.4 Z" id="Fill-169" stroke="none" fill="#CADCE0" fill-rule="evenodd"></path>
                        <path d="M85.9410889,68.4 C86.3410889,70 85.5410889,71.6 84.1410889,71.9 C82.7410889,72.1 81.4410889,71.1 81.0410889,69.4 C80.7410889,67.7 81.5410889,66.2 82.8410889,65.9 C84.2410889,65.6 85.6410889,66.7 85.9410889,68.4 Z" id="Stroke-170" stroke="#203568" stroke-width="1.98099" fill="none" stroke-linecap="round"></path>
                        <path d="M105.141089,68.9 C105.141089,70.4 104.141089,71.6 102.941089,71.6 C101.741089,71.6 100.741089,70.4 100.741089,68.9 C100.741089,67.4 101.741089,66.1 102.941089,66.1 C104.141089,66.1 105.141089,67.4 105.141089,68.9 Z" id="Fill-171" stroke="none" fill="#CADCE0" fill-rule="evenodd"></path>
                        <path d="M105.141089,68.9 C105.141089,70.4 104.141089,71.6 102.941089,71.6 C101.741089,71.6 100.741089,70.4 100.741089,68.9 C100.741089,67.4 101.741089,66.1 102.941089,66.1 C104.141089,66.1 105.141089,67.4 105.141089,68.9 Z" id="Stroke-172" stroke="#203568" stroke-width="1.98099" fill="none" stroke-linecap="round"></path>
                        <path d="M76.3410889,64.2 C78.3410889,58.2 83.0410889,58.8 83.0410889,58.8" id="Stroke-173" stroke="#203568" stroke-width="1.98099" fill="none" stroke-linecap="round"></path>
                        <path d="M104.141089,58.5 C104.141089,58.5 107.241089,58.6 108.441089,62.8" id="Stroke-174" stroke="#203568" stroke-width="1.98099" fill="none" stroke-linecap="round"></path>
                        <path d="M92.0410889,223.1 C92.0410889,223.1 92.4410889,253 95.5410889,258.6 C98.6410889,264.2 121.541089,259.7 121.541089,259.7 C121.541089,259.7 119.241089,237.9 119.441089,222.7 C109.741089,225.9 92.0410889,223.1 92.0410889,223.1 Z" id="Fill-175" stroke="none" fill="#CADCE0" fill-rule="evenodd"></path>
                        <path d="M92.0410889,223.1 C92.0410889,223.1 92.4410889,253 95.5410889,258.6 C98.6410889,264.2 121.541089,259.7 121.541089,259.7 C121.541089,259.7 119.241089,237.9 119.441089,222.7 C109.741089,225.9 92.0410889,223.1 92.0410889,223.1 Z" id="Stroke-176" stroke="#203568" stroke-width="1.98099" fill="none"></path>
                        <path d="M91.4410889,212.2 C91.4410889,212.2 87.2410889,216.1 91.3410889,222.3 C96.9410889,224.5 115.141089,224.5 119.641089,222.7 C121.841089,221.9 123.141089,214.7 119.841089,211.9 C108.541089,214.7 94.8410889,211.6 91.4410889,212.2 Z" id="Fill-177" stroke="none" fill="#E1EDEF" fill-rule="evenodd"></path>
                        <path d="M91.4410889,212.2 C91.4410889,212.2 87.2410889,216.1 91.3410889,222.3 C96.9410889,224.5 115.141089,224.5 119.641089,222.7 C121.841089,221.9 123.141089,214.7 119.841089,211.9 C108.541089,214.7 94.8410889,211.6 91.4410889,212.2 Z" id="Stroke-178" stroke="#203568" stroke-width="1.98099" fill="none" stroke-linecap="round"></path>
                        <path d="M110.641089,179.2 C114.441089,218.4 102.541089,241.1 112.941089,288.5 C120.741089,324.9 8.04108887,284.9 8.04108887,284.9 C8.04108887,284.9 -9.35891113,168.2 15.2410889,140.7 C20.4410889,134.8 34.9410889,134.5 49.4410889,130.4 C51.8410889,133.7 63.9410889,141.7 74.2410889,141.6 C82.1410889,141.4 86.7410889,134.6 88.0410889,131.5 C98.3410889,132.3 113.141089,135.5 117.441089,155.7 C119.841089,167.1 118.441089,201.4 119.641089,211.9 C115.641089,213.2 112.141089,213.2 112.141089,213.2 L110.641089,179.2 Z" id="Fill-179" stroke="none" fill="#789DA8" fill-rule="evenodd"></path>
                        <path d="M18.7410889,137.8 C18.7410889,137.8 5.44108887,181.6 11.4410889,213.3 C5.54108887,212.1 2.14108887,212.2 2.14108887,212.2 C2.14108887,212.2 -2.95891113,154.9 18.7410889,137.8 Z" id="Fill-180" stroke="none" fill="#577E84" fill-rule="evenodd"></path>
                        <path d="M32.4410889,178.2 C32.4410889,178.2 33.9410889,228.9 45.4410889,253.8 C39.5410889,252.6 31.0410889,252.9 31.0410889,252.9 C31.0410889,252.9 27.2410889,205.1 32.4410889,178.2 Z" id="Fill-181" stroke="none" fill="#577E84" fill-rule="evenodd"></path>
                        <path d="M2.44108887,214.4 C1.84108887,184.3 4.24108887,153.2 15.4410889,140.7 C20.6410889,134.8 47.3410889,132.2 50.1410889,130.3 C52.5410889,133.5 64.1410889,141.7 74.4410889,141.6 C82.3410889,141.4 87.0410889,135.5 88.4410889,132.4 C98.6410889,133.1 113.441089,135.5 117.741089,155.7 C120.041089,167.1 118.741089,201.3 119.841089,211.9 C115.941089,213.2 112.341089,213.2 112.341089,213.2" id="Stroke-182" stroke="#203568" stroke-width="1.98099" fill="none" stroke-linecap="round"></path>
                        <path d="M110.941089,179.1 C114.741089,218.4 102.841089,241.1 113.241089,288.5" id="Stroke-183" stroke="#203568" stroke-width="1.98099" fill="none" stroke-linecap="round"></path>
                        <path d="M32.4410889,178.5 C32.4410889,178.5 29.3410889,206.4 30.0410889,222.7" id="Stroke-184" stroke="#203568" stroke-width="1.98099" fill="none" stroke-linecap="round"></path>
                        <path d="M2.64108887,223.1 C2.64108887,223.1 3.04108887,253 6.14108887,258.6 C9.24108887,264.2 32.1410889,259.7 32.1410889,259.7 C32.1410889,259.7 29.8410889,237.9 30.0410889,222.7 C20.3410889,225.9 2.64108887,223.1 2.64108887,223.1 Z" id="Fill-185" stroke="none" fill="#CADCE0" fill-rule="evenodd"></path>
                        <path d="M2.64108887,223.1 C2.64108887,223.1 2.24108887,246.1 4.34108887,251.7 C6.44108887,257.4 14.9410889,252.6 14.9410889,252.6 C14.9410889,252.6 12.0410889,239 12.1410889,223.8 C4.14108887,224.8 2.64108887,223.1 2.64108887,223.1 Z" id="Fill-186" stroke="none" fill="#8DAFB7" fill-rule="evenodd"></path>
                        <path d="M2.34108887,223.1 C2.34108887,223.1 2.74108887,253 5.84108887,258.6 C8.94108887,264.2 31.8410889,259.7 31.8410889,259.7 C31.8410889,259.7 29.5410889,237.9 29.7410889,222.7 C20.0410889,225.9 2.34108887,223.1 2.34108887,223.1 Z" id="Stroke-187" stroke="#203568" stroke-width="1.98099" fill="none"></path>
                        <path d="M1.94108887,212.2 C1.94108887,212.2 -2.35891113,216.1 1.84108887,222.3 C7.44108887,224.5 25.6410889,224.5 30.1410889,222.7 C32.2410889,221.9 33.6410889,214.7 30.2410889,211.9 C19.0410889,214.7 5.34108887,211.6 1.94108887,212.2 Z" id="Fill-188" stroke="none" fill="#E1EDEF" fill-rule="evenodd"></path>
                        <path d="M9.84108887,212.3 C9.84108887,212.3 6.74108887,218.5 10.6410889,223.8 C4.84108887,222.6 3.14108887,222.9 3.14108887,222.9 C3.14108887,222.9 -3.15891113,217.9 2.14108887,212.2 C4.64108887,212.4 6.44108887,212.9 9.84108887,212.3 Z" id="Fill-189" stroke="none" fill="#D9DEDF" fill-rule="evenodd"></path>
                        <path d="M2.14108887,212.2 C2.14108887,212.2 -2.15891113,216.1 2.04108887,222.3 C7.64108887,224.5 25.7410889,224.5 30.2410889,222.7 C32.3410889,221.9 33.7410889,214.7 30.4410889,211.9 C19.1410889,214.7 5.44108887,211.6 2.14108887,212.2 Z" id="Stroke-190" stroke="#203568" stroke-width="1.98099" fill="none" stroke-linecap="round"></path>
                        <path d="M45.5410889,131.2 C46.9410889,128 48.6410889,126.1 51.1410889,124.7 C51.6410889,129.4 57.1410889,138.3 72.0410889,141.2 C69.5410889,143 68.5410889,148 68.2410889,150.2 C68.1410889,150.8 67.6410889,151.2 67.0410889,151 C55.8410889,146.8 45.8410889,135.5 45.5410889,131.2 Z" id="Fill-191" stroke="none" fill="#E1EDEF" fill-rule="evenodd"></path>
                        <path d="M45.5410889,131.2 C46.9410889,128 48.6410889,126.1 51.1410889,124.7 C51.6410889,129.4 57.1410889,138.3 72.0410889,141.2 C69.5410889,143 68.5410889,148 68.2410889,150.2 C68.1410889,150.8 67.6410889,151.2 67.0410889,151 C55.8410889,146.8 45.8410889,135.5 45.5410889,131.2 Z" id="Stroke-192" stroke="#203568" stroke-width="1.98099" fill="none" stroke-linecap="round"></path>
                        <path d="M92.5410889,132.8 C90.9410889,131.1 89.4410889,130.7 88.1410889,130 C87.9410889,132.4 85.0410889,141.6 75.9410889,141.7 C77.2410889,142.6 82.1410889,147.4 82.7410889,149.4 C82.9410889,149.9 83.5410889,150.3 84.0410889,150 C91.5410889,145 93.3410889,135.7 92.5410889,132.8 Z" id="Fill-193" stroke="none" fill="#E1EDEF" fill-rule="evenodd"></path>
                        <path d="M92.5410889,132.8 C90.9410889,131.1 89.4410889,130.7 88.1410889,130 C87.9410889,132.4 85.0410889,141.6 75.9410889,141.7 C77.2410889,142.6 82.1410889,147.4 82.7410889,149.4 C82.9410889,149.9 83.5410889,150.3 84.0410889,150 C91.5410889,145 93.3410889,135.7 92.5410889,132.8 Z" id="Stroke-194" stroke="#203568" stroke-width="1.98099" fill="none" stroke-linecap="round"></path>
                        <path d="M73.8410889,142.2 C73.8410889,142.2 76.8410889,152.1 75.9410889,170.7" id="Stroke-195" stroke="#203568" stroke-width="1.98099" fill="none" stroke-linecap="round"></path>
                    </g>
                </g>
            </g>
        </g>
    </g>
</svg>