<?xml version="1.0" encoding="UTF-8"?>
<svg width="118px" height="240px" viewBox="0 0 118 240" version="1.1" xmlns="http://www.w3.org/2000/svg" xmlns:xlink="http://www.w3.org/1999/xlink">
    <!-- Generator: Sketch 53.2 (72643) - https://sketchapp.com -->
    <title>seller-inactive</title>
    <desc>Created with Sketch.</desc>
    <defs>
        <path d="M8.55240738,248.872852 C80.678178,243.516606 118.530102,240.177544 122.10818,238.855667 C127.475297,236.872852 129.372387,165.172852 125.420261,145.472852 C122.78551,132.339518 116.512656,126.706185 106.601699,128.572852 C110.763085,79.9083985 110.763085,48.0540689 106.601699,33.009863 C100.359621,10.4435541 54.4310594,-4.391939 30.2696198,1.17285169 C6.10818012,6.73764237 -4.71316784,33.6918513 1.91961977,63.2670881 C8.55240738,92.842325 10.2967405,112.565029 6.10818012,128.572852 C4.37940949,135.17986 0.883245983,141.306825 1.91961977,170.472852 C2.34469648,182.435523 4.55562568,208.568856 8.55240738,248.872852 Z" id="path-1"></path>
    </defs>
    <g id="Page-18" stroke="none" stroke-width="1" fill="none" fill-rule="evenodd">
        <g id="Artboard-1" transform="translate(-438.000000, -267.000000)">
            <g id="seller-inactive" transform="translate(432.930380, 257.778329)">
                <mask id="mask-2" fill="white">
                    <use xlink:href="#path-1"></use>
                </mask>
                <g id="Mask"></g>
                <g mask="url(#mask-2)">
                    <g transform="translate(6.108180, 10.443554)">
                        <path d="M90.5614396,255.329298 L107.76144,255.729298 C107.76144,255.729298 121.66144,175.029298 111.86144,136.429298 C109.36144,126.629298 80.4614396,121.529298 66.9614396,121.929298 C60.4614396,124.629298 47.0614396,127.729298 47.0614396,127.729298 L40.6614396,123.329298 C40.6614396,123.329298 9.36143965,121.229298 3.86143965,135.829298 C-2.13856035,151.729298 13.4614396,208.529298 3.86143965,275.729298 C0.661439648,298.329298 21.2614396,276.629298 21.2614396,276.629298 L20.6614396,270.929298 L90.5614396,255.329298 Z" id="Fill-74" stroke="none" fill="#789DA8" fill-rule="evenodd"></path>
                        <path d="M90.5614396,255.329298 L107.76144,255.729298 C107.76144,255.729298 121.66144,175.029298 111.86144,136.429298 C109.36144,126.629298 80.4614396,121.529298 66.9614396,121.929298 C60.4614396,124.629298 47.0614396,127.729298 47.0614396,127.729298 L40.6614396,123.329298 C40.6614396,123.329298 9.36143965,121.229298 3.86143965,135.829298 C-2.13856035,151.729298 13.4614396,208.529298 3.86143965,275.729298 C0.661439648,298.329298 21.2614396,276.629298 21.2614396,276.629298 L20.6614396,270.929298" id="Stroke-75" stroke="#203568" stroke-width="1.98099" fill="none" stroke-linecap="round"></path>
                        <path d="M93.8614396,164.629298 C93.8614396,164.629298 103.46144,235.629298 99.5614396,240.729298 C95.6614396,245.829298 95.1614396,238.829298 91.5614396,239.529298 C94.5614396,207.729298 93.8614396,164.629298 93.8614396,164.629298 Z" id="Fill-76" stroke="none" fill="#577E84" fill-rule="evenodd"></path>
                        <path d="M93.4614396,164.229298 C93.4614396,164.229298 98.0614396,237.829298 85.0614396,255.229298" id="Stroke-77" stroke="#203568" stroke-width="1.98099" fill="none" stroke-linecap="round"></path>
                        <path d="M22.1614396,123.629298 C21.9614396,140.129298 20.9614396,146.629298 14.4614396,162.629298 C7.76143965,179.229298 13.3614396,190.029298 16.9614396,197.429298 C20.5614396,204.829298 21.8614396,263.829298 21.8614396,269.229298 C21.8614396,274.629298 81.0614396,272.129298 87.3614396,256.029298 C93.6614396,240.029298 93.9614396,198.629298 93.9614396,198.629298 C93.9614396,198.629298 80.0614396,190.229298 78.0614396,169.929298 C76.8614396,157.429298 78.6614396,132.329298 82.8614396,123.829298 C79.9614396,122.629298 73.9614396,122.029298 73.9614396,122.029298 C73.9614396,122.029298 63.3614396,155.429298 43.2614396,155.129298 C20.1614396,154.829298 33.5614396,121.629298 33.5614396,121.629298 C33.5614396,121.629298 26.3614396,120.029298 22.1614396,123.629298 Z" id="Fill-78" stroke="none" fill="#44616B" fill-rule="evenodd"></path>
                        <path d="M11.9614396,67.9292976 C11.9614396,67.9292976 12.8614396,100.829298 7.46143965,111.029298 C10.1614396,112.229298 13.5614396,111.329298 15.5614396,110.129298 C16.0614396,110.829298 16.0614396,112.029298 15.8614396,113.229298 C15.7614396,114.629298 16.7614396,116.029298 18.1614396,116.229298 L26.2614396,117.329298 L28.9614396,112.229298 L30.7614396,113.729298 L40.8614396,112.929298 C40.8614396,112.929298 40.6614396,98.4292976 40.4614396,94.7292976 C39.7614396,93.9292976 21.8614396,97.5292976 11.9614396,67.9292976 Z" id="Fill-79" stroke="none" fill="#789DA8" fill-rule="evenodd"></path>
                        <path d="M40.1614396,93.5292976 C40.1614396,93.5292976 41.5614396,111.929298 40.6614396,122.729298 C40.6614396,124.529298 40.9614396,124.129298 47.0614396,127.729298 C53.4614396,127.829298 65.2614396,122.629298 66.6614396,119.429298 C69.3614396,113.129298 67.5614396,90.8292976 67.5614396,90.8292976 C67.5614396,90.8292976 44.2614396,94.8292976 40.1614396,93.5292976 Z" id="Fill-80" stroke="none" fill="#CADCE0" fill-rule="evenodd"></path>
                        <path d="M39.8614396,93.5292976 C39.8614396,93.5292976 41.2614396,111.929298 40.3614396,122.729298 C40.3614396,124.529298 40.6614396,124.129298 46.7614396,127.729298 C53.1614396,127.829298 64.9614396,122.629298 66.3614396,119.429298 C69.0614396,113.129298 67.2614396,90.8292976 67.2614396,90.8292976 C67.2614396,90.8292976 43.9614396,94.8292976 39.8614396,93.5292976 Z" id="Stroke-81" stroke="#203568" stroke-width="1.98099" fill="none"></path>
                        <path d="M22.4614396,123.829298 C22.1614396,140.329298 21.2614396,146.829298 14.6614396,162.829298 C7.96143965,179.429298 13.5614396,190.229298 17.1614396,197.629298 C20.7614396,205.029298 22.1614396,264.129298 22.1614396,269.429298 C22.1614396,274.829298 81.3614396,272.429298 87.5614396,256.329298 C93.8614396,240.229298 94.1614396,198.929298 94.1614396,198.929298 C94.1614396,198.929298 80.2614396,190.529298 78.3614396,170.129298 C77.1614396,157.629298 78.8614396,132.529298 83.0614396,124.129298 C80.1614396,122.929298 74.1614396,122.229298 74.1614396,122.229298 C74.1614396,122.229298 63.5614396,155.729298 43.4614396,155.429298 C20.3614396,155.029298 33.7614396,121.929298 33.7614396,121.929298 C33.7614396,121.929298 26.5614396,120.229298 22.4614396,123.829298 Z" id="Stroke-82" stroke="#203568" stroke-width="1.98099" fill="none" stroke-linecap="round"></path>
                        <path d="M39.5614396,118.129298 C39.5614396,118.129298 33.4614396,120.829298 33.2614396,126.529298 C33.1614396,131.329298 38.9614396,132.329298 38.9614396,132.329298 C38.9614396,132.329298 41.6614396,127.529298 43.5614396,125.829298 C41.2614396,124.429298 39.2614396,123.629298 39.5614396,118.129298 Z" id="Fill-83" stroke="none" fill="#789DA8" fill-rule="evenodd"></path>
                        <path d="M39.8614396,118.129298 C39.8614396,118.129298 33.6614396,120.829298 33.5614396,126.529298 C33.3614396,131.329298 39.2614396,132.329298 39.2614396,132.329298 C39.2614396,132.329298 41.9614396,127.529298 43.7614396,125.829298 C41.5614396,124.429298 39.4614396,123.629298 39.8614396,118.129298 Z" id="Stroke-84" stroke="#203568" stroke-width="1.98099" fill="none" stroke-linecap="round"></path>
                        <path d="M51.2614396,127.229298 C51.2614396,127.229298 52.6614396,130.729298 52.4614396,134.129298 C60.5614396,134.429298 69.8614396,126.029298 71.6614396,121.229298 C73.1614396,117.029298 68.8614396,117.229298 66.9614396,117.929298 C66.2614396,119.329298 60.8614396,123.629298 51.2614396,127.229298 Z" id="Fill-85" stroke="none" fill="#789DA8" fill-rule="evenodd"></path>
                        <path d="M51.2614396,127.229298 C51.2614396,127.229298 52.6614396,130.729298 52.4614396,134.129298 C60.5614396,134.429298 69.8614396,126.029298 71.6614396,121.229298 C73.1614396,117.029298 68.8614396,117.229298 66.9614396,117.929298 C66.2614396,119.329298 60.8614396,123.629298 51.2614396,127.229298 Z" id="Stroke-86" stroke="#203568" stroke-width="1.98099" fill="none" stroke-linecap="round"></path>
                        <path d="M11.8614396,66.7292976 C11.8614396,66.7292976 12.0614396,96.9292976 9.96143965,104.429298 C7.86143965,111.929298 8.36143965,111.229298 8.36143965,111.229298 C8.36143965,111.229298 14.3614396,111.129298 14.7614396,110.529298 C15.2614396,109.929298 16.5614396,78.7292976 16.5614396,78.7292976 C16.5614396,78.7292976 11.8614396,69.1292976 11.8614396,66.7292976 Z" id="Fill-87" stroke="none" fill="#A3BEC6" fill-rule="evenodd"></path>
                        <path d="M46.8614396,127.729298 C46.8614396,127.729298 42.7614396,146.529298 43.4614396,155.429298" id="Stroke-88" stroke="#203568" stroke-width="1.98099" fill="none" stroke-linecap="round"></path>
                        <path d="M11.0614396,45.6292976 C11.0614396,45.6292976 4.86143965,105.729298 57.7614396,93.1292976 C110.66144,80.5292976 76.6614396,18.6292976 64.0614396,16.9292976 C51.4614396,15.1292976 11.0614396,15.1292976 11.0614396,45.6292976 Z" id="Fill-89" stroke="none" fill="#CADCE0" fill-rule="evenodd"></path>
                        <path d="M10.8614396,45.6292976 C10.8614396,45.6292976 4.56143965,105.729298 57.4614396,93.1292976 C110.46144,80.5292976 76.3614396,18.6292976 63.7614396,16.9292976 C51.2614396,15.1292976 10.8614396,15.1292976 10.8614396,45.6292976 Z" id="Stroke-90" stroke="#203568" stroke-width="1.98099" fill="none"></path>
                        <path d="M41.2614396,95.6292976 C41.2614396,95.6292976 41.1614396,110.429298 59.5614396,109.529298 C77.9614396,108.629298 71.3614396,89.6292976 61.4614396,92.8292976 C49.6614396,96.5292976 41.2614396,95.6292976 41.2614396,95.6292976 Z" id="Fill-91" stroke="none" fill="#8DAFB7" fill-rule="evenodd"></path>
                        <path d="M11.8614396,46.4292976 C16.1614396,44.8292976 23.4614396,42.0292976 41.6614396,40.7292976 C54.1614396,39.8292976 57.2614396,30.0292976 57.6614396,25.6292976 C52.3614396,39.9292976 12.4614396,41.2292976 11.8614396,46.4292976 Z" id="Fill-92" stroke="none" fill="#8DAFB7" fill-rule="evenodd"></path>
                        <path d="M10.1614396,54.5292976 L10.1614396,46.4292976 C20.8614396,37.5292976 51.4614396,41.0292976 58.1614396,24.4292976 C58.5614396,29.4292976 58.5614396,45.6292976 69.3614396,50.0292976 C65.7614396,78.7292976 58.5614396,96.2292976 54.5614396,101.829298 C57.6614396,102.129298 60.3614396,102.129298 60.3614396,102.129298 L60.2614396,115.729298 L67.8614396,115.629298 L66.6614396,120.029298 L76.5614396,120.329298 C76.5614396,120.329298 76.3614396,123.029298 77.5614396,124.129298 C84.6614396,125.129298 90.6614396,119.429298 90.6614396,119.429298 C90.6614396,119.429298 85.6614396,104.429298 88.1614396,78.7292976 C89.2614396,68.0292976 103.56144,13.0292976 71.3614396,13.0292976 C69.3614396,5.22929761 54.3614396,-3.47070239 31.6614396,1.62929761 C3.86143965,7.92929761 -11.3385604,43.8292976 10.1614396,54.5292976 Z" id="Fill-93" stroke="none" fill="#789DA8" fill-rule="evenodd"></path>
                        <path d="M68.7614396,49.7292976 C68.7614396,49.7292976 63.7614396,86.6292976 57.2614396,96.7292976 C53.1614396,103.329298 55.5614396,101.829298 55.5614396,101.829298 C55.5614396,101.829298 60.6614396,103.329298 60.8614396,102.529298 C67.6614396,83.3292976 73.3614396,48.3292976 68.7614396,49.7292976 Z" id="Fill-94" stroke="none" fill="#A3BEC6" fill-rule="evenodd"></path>
                        <path d="M58.5614396,22.6292976 C58.5614396,22.6292976 57.1614396,41.7292976 68.8614396,49.5292976 C59.0614396,37.6292976 64.5614396,21.4292976 58.5614396,22.6292976 Z" id="Fill-95" stroke="none" fill="#A3BEC6" fill-rule="evenodd"></path>
                        <path d="M5.26143965,50.3292976 C5.26143965,50.3292976 4.36143965,43.3292976 9.26143965,39.6292976 C19.4614396,32.0292976 38.0614396,34.6292976 48.1614396,27.0292976 C56.6614396,20.6292976 64.8614396,5.32929761 54.5614396,1.62929761 C51.7614396,0.629297611 29.8614396,-5.07070239 11.3614396,13.1292976 C-8.83856035,33.0292976 5.26143965,50.3292976 5.26143965,50.3292976 Z" id="Fill-96" stroke="none" fill="#A3BEC6" fill-rule="evenodd"></path>
                        <path d="M30.4614396,79.0292976 C30.4614396,79.0292976 35.7614396,80.0292976 40.4614396,76.2292976" id="Stroke-97" stroke="#203568" stroke-width="1.98099" fill="none" stroke-linecap="round"></path>
                        <path d="M40.4614396,112.929298 L31.5614396,113.629298 C31.0614396,113.729298 30.5614396,113.429298 30.3614396,113.029298 L29.8614396,112.229298 C29.4614396,111.729298 28.6614396,111.829298 28.3614396,112.429298 L26.6614396,116.329298 C26.4614396,116.929298 25.8614396,117.229298 25.2614396,117.129298 L18.0614396,115.929298 C16.7614396,115.729298 15.8614396,114.529298 15.8614396,113.229298 C15.9614396,112.229298 15.7614396,111.229298 15.6614396,110.729298 C15.5614396,110.429298 15.2614396,110.229298 15.0614396,110.429298 C14.0614396,110.929298 11.4614396,112.029298 8.96143965,111.529298 C8.16143965,111.429298 7.76143965,110.529298 8.06143965,109.729298 C15.2614396,92.8292976 10.1614396,54.5292976 10.1614396,54.5292976 C10.1614396,54.5292976 0.261439648,50.9292976 0.261439648,35.6292976 C0.261439648,20.4292976 17.2614396,0.729297611 42.4614396,0.729297611 C67.5614396,0.729297611 70.2614396,8.72929761 71.1614396,13.2292976 C77.4614396,13.2292976 85.4614396,15.0292976 89.9614396,25.8292976 C94.4614396,36.5292976 89.0614396,71.5292976 88.1614396,79.6292976 C87.3614396,86.8292976 88.7614396,110.029298 90.3614396,117.329298 C90.6614396,118.629298 90.0614396,120.029298 88.9614396,120.829298 C85.7614396,123.229298 81.3614396,123.629298 78.1614396,123.929298 C76.8614396,124.129298 76.0614396,122.629298 76.8614396,121.629298 C77.0614396,121.329298 76.8614396,120.929298 76.4614396,120.929298 L68.2614396,120.929298 C67.4614396,120.929298 66.9614396,120.129298 67.1614396,119.429298 L67.9614396,117.029298 C68.1614396,116.229298 67.6614396,115.529298 66.8614396,115.529298 L61.4614396,115.529298 C60.8614396,115.529298 60.3614396,115.029298 60.3614396,114.329298 L60.3614396,103.229298 C60.3614396,102.529298 59.8614396,102.029298 59.2614396,102.029298 L56.2614396,102.029298 C55.3614396,102.029298 54.8614396,101.029298 55.3614396,100.329298 C62.6614396,88.9292976 67.9614396,58.4292976 69.1614396,51.5292976 C69.2614396,50.6292976 68.8614396,49.8292976 68.1614396,49.3292976 C56.0614396,40.8292976 59.1614396,23.1292976 58.5614396,23.1292976 C57.8614396,23.1292976 57.6614396,35.1292976 31.6614396,39.2292976 C9.26143965,42.8292976 9.26143965,48.4292976 9.26143965,48.4292976" id="Stroke-98" stroke="#203568" stroke-width="1.98099" fill="none" stroke-linecap="round"></path>
                        <path d="M83.6614396,59.0292976 C83.6614396,62.9292976 80.5614396,66.1292976 77.8614396,66.1292976 C75.0614396,66.1292976 73.7614396,62.9292976 73.7614396,59.0292976 C73.7614396,55.0292976 76.0614396,51.8292976 78.7614396,51.8292976 C81.4614396,51.8292976 83.6614396,55.0292976 83.6614396,59.0292976 Z" id="Fill-99" stroke="none" fill="#CADCE0" fill-rule="evenodd"></path>
                        <path d="M83.6614396,59.0292976 C83.6614396,62.9292976 80.5614396,66.1292976 77.7614396,66.1292976 C75.0614396,66.1292976 73.7614396,62.9292976 73.7614396,59.0292976 C73.7614396,55.0292976 75.9614396,51.8292976 78.6614396,51.8292976 C81.4614396,51.8292976 83.6614396,55.0292976 83.6614396,59.0292976 Z" id="Stroke-100" stroke="#203568" stroke-width="1.98099" fill="none"></path>
                        <path d="M73.7614396,58.9292976 C73.7614396,58.9292976 72.8614396,67.1292976 74.7614396,71.5292976" id="Stroke-101" stroke="#203568" stroke-width="1.98099" fill="none" stroke-linecap="round"></path>
                        <path d="M79.2614396,56.3292976 C79.2614396,56.3292976 77.8614396,57.0292976 77.9614396,58.9292976" id="Stroke-102" stroke="#203568" stroke-width="1.98099" fill="none" stroke-linecap="round"></path>
                        <path d="M53.4614396,142.429298 C53.4614396,143.829298 52.3614396,145.029298 50.9614396,145.029298 C49.5614396,145.029298 48.3614396,143.829298 48.3614396,142.429298 C48.3614396,140.929298 49.5614396,139.729298 50.9614396,139.729298 C52.3614396,139.729298 53.4614396,140.929298 53.4614396,142.429298 Z" id="Stroke-103" stroke="#203568" stroke-width="1.98099" fill="none" stroke-linecap="round"></path>
                        <path d="M49.3614396,191.129298 L71.6614396,191.129298 C72.8614396,191.129298 73.8614396,190.129298 73.8614396,188.929298 L73.8614396,181.729298 C73.8614396,180.529298 72.8614396,179.529298 71.5614396,179.529298 L49.3614396,180.229298 C48.1614396,180.329298 47.2614396,181.329298 47.2614396,182.529298 L47.2614396,188.929298 C47.2614396,190.129298 48.1614396,191.129298 49.3614396,191.129298 Z" id="Fill-104" stroke="none" fill="#CADCE0" fill-rule="evenodd"></path>
                        <polygon id="Fill-105" stroke="none" fill="#A3BEC6" fill-rule="evenodd" points="55.6614396 190.229298 57.9614396 190.229298 52.8614396 181.029298 50.0614396 181.129298"></polygon>
                        <polygon id="Fill-106" stroke="none" fill="#A3BEC6" fill-rule="evenodd" points="61.1614396 190.329298 66.3614396 190.129298 59.6614396 180.829298 55.1614396 181.129298"></polygon>
                        <path d="M49.3614396,191.129298 L71.5614396,191.129298 C72.8614396,191.129298 73.7614396,190.129298 73.7614396,188.929298 L73.7614396,181.729298 C73.7614396,180.529298 72.7614396,179.529298 71.4614396,179.529298 L49.2614396,180.229298 C48.0614396,180.329298 47.1614396,181.329298 47.1614396,182.529298 L47.1614396,188.929298 C47.1614396,190.129298 48.0614396,191.129298 49.3614396,191.129298 Z" id="Stroke-107" stroke="#203568" stroke-width="1.98099" fill="none" stroke-linecap="round"></path>
                        <path d="M37.6614396,56.3292976 C37.3614396,57.8292976 38.1614396,59.3292976 39.3614396,59.6292976 C40.6614396,59.9292976 41.9614396,58.8292976 42.3614396,57.3292976 C42.6614396,55.7292976 41.9614396,54.2292976 40.6614396,53.9292976 C39.3614396,53.6292976 38.0614396,54.7292976 37.6614396,56.3292976 Z" id="Fill-108" stroke="none" fill="#CADCE0" fill-rule="evenodd"></path>
                        <path d="M37.6614396,56.3292976 C37.3614396,57.8292976 38.1614396,59.3292976 39.3614396,59.6292976 C40.6614396,59.9292976 41.9614396,58.8292976 42.3614396,57.3292976 C42.6614396,55.7292976 41.9614396,54.2292976 40.6614396,53.9292976 C39.3614396,53.6292976 38.0614396,54.7292976 37.6614396,56.3292976 Z" id="Stroke-109" stroke="#203568" stroke-width="1.98099" fill="none" stroke-linecap="round"></path>
                        <path d="M18.1614396,58.4292976 C18.1614396,59.7292976 19.0614396,60.8292976 20.1614396,60.8292976 C21.1614396,60.8292976 22.0614396,59.7292976 22.0614396,58.4292976 C22.0614396,57.1292976 21.1614396,56.0292976 20.1614396,56.0292976 C19.0614396,56.0292976 18.1614396,57.1292976 18.1614396,58.4292976 Z" id="Fill-110" stroke="none" fill="#CADCE0" fill-rule="evenodd"></path>
                        <path d="M18.1614396,58.4292976 C18.1614396,59.7292976 19.0614396,60.8292976 20.1614396,60.8292976 C21.1614396,60.8292976 22.0614396,59.7292976 22.0614396,58.4292976 C22.0614396,57.1292976 21.1614396,56.0292976 20.1614396,56.0292976 C19.0614396,56.0292976 18.1614396,57.1292976 18.1614396,58.4292976 Z" id="Stroke-111" stroke="#203568" stroke-width="1.98099" fill="none" stroke-linecap="round"></path>
                        <path d="M20.3614396,50.0292976 C20.3614396,50.0292976 17.5614396,50.4292976 16.0614396,52.1292976" id="Stroke-112" stroke="#203568" stroke-width="1.98099" fill="none" stroke-linecap="round"></path>
                        <path d="M45.3614396,48.5292976 C42.2614396,47.3292976 38.1614396,48.2292976 38.1614396,48.2292976" id="Stroke-113" stroke="#203568" stroke-width="1.98099" fill="none" stroke-linecap="round"></path>
                    </g>
                </g>
            </g>
        </g>
    </g>
</svg>